<svg xmlns="http://www.w3.org/2000/svg" viewBox="0 0 495.98 488.02"><defs><style>.cls-1,.cls-10,.cls-11,.cls-12,.cls-13,.cls-14,.cls-15,.cls-16,.cls-17,.cls-18,.cls-19,.cls-2,.cls-20,.cls-21,.cls-22,.cls-23,.cls-24,.cls-3,.cls-4,.cls-5,.cls-6,.cls-7,.cls-8,.cls-9{fill:none;stroke-linecap:round;stroke-linejoin:round;}.cls-1,.cls-2,.cls-9{stroke:#a88771;}.cls-1{stroke-width:9.3px;}.cls-2{stroke-width:5.27px;}.cls-11,.cls-14,.cls-16,.cls-17,.cls-19,.cls-3,.cls-4,.cls-5,.cls-6,.cls-7,.cls-8{stroke:#f74700;}.cls-3{stroke-width:3.72px;}.cls-4{stroke-width:6.51px;}.cls-5{stroke-width:1.86px;}.cls-6{stroke-width:3.41px;}.cls-7{stroke-width:10.23px;}.cls-13,.cls-21,.cls-8{stroke-width:7.75px;}.cls-22,.cls-9{stroke-width:8.37px;}.cls-10,.cls-12,.cls-13,.cls-15{stroke:#b8cdb4;}.cls-10,.cls-14{stroke-width:4.34px;}.cls-11,.cls-15{stroke-width:8.06px;}.cls-12,.cls-16{stroke-width:3.1px;}.cls-17{stroke-width:6.82px;}.cls-18,.cls-20,.cls-21,.cls-22{stroke:#b53a25;}.cls-18{stroke-width:8.68px;}.cls-19{stroke-width:6.2px;}.cls-20{stroke-width:5.58px;}.cls-23,.cls-24{stroke:#8d1202;}.cls-23{stroke-width:2.17px;}.cls-24{stroke-width:1.55px;}</style></defs><g id="Layer_2" data-name="Layer 2"><g id="Web1"><path class="cls-1" d="M173.3,354.79a13.32,13.32,0,1,0-16.13,11.13A13.54,13.54,0,0,0,173.3,354.79Z"/><path class="cls-1" d="M175.13,353s65.25,10.44,106.27,3.92c29.42-4.68,50.11-3.19,73-22.31,19.73-16.51,34.14-31.08,33.38-56.79-.64-21.6-26.18-48.74-26.18-48.74"/><path class="cls-2" d="M227.86,303.64c-1.68-1.94,4.59-24.43,33.87-24.64s62.35,42.15,79.54,43.18,15.92-1.39,26.12-2.28c0,0-5.12,9.24-18.52,12.28s-17.25,3.69-29-1.54-45.89-28.05-62-29.95S229.55,305.57,227.86,303.64Z"/><path class="cls-2" d="M231.27,298.53c-1.71-1.57,2.46-17.85,29.67-15.85s61.1,36,77.16,38.05,14.71.14,24.13.23c0,0-4.08,6.51-16.32,7.77s-15.77,1.48-27.09-3.29-44.75-24.28-59.88-26.89S233,300.1,231.27,298.53Z"/><path class="cls-2" d="M235.54,295.13c-1.77-1.25.5-12,26.34-7.89s61.24,31,76.58,34,13.87,1.59,22.75,2.62c0,0-3.19,4.05-14.58,3.69s-14.71-.59-25.86-5S276.13,301.29,261.61,298,237.31,296.38,235.54,295.13Z"/><path class="cls-2" d="M236.84,291.42c-1.88-.95-1.52-6.27,23.51.2s62.81,26.48,77.76,30.61,13.33,3.14,21.87,5.15c0,0-2.33,1.61-13.13-.47s-14-2.74-25.19-6.93-45.56-18.59-59.79-22.76S238.71,292.37,236.84,291.42Z"/><path class="cls-1" d="M362,228.36a13.32,13.32,0,1,0-16.13,11.13A13.55,13.55,0,0,0,362,228.36Z"/><path class="cls-1" d="M248.37,359.12s-24,4.64-33.22,15.57c-7.82,9.24-10.41,29.19-10.41,29.19"/><path class="cls-2" d="M240.17,482.62c.72,2.46,23.05,9.29,39-15.27s-2-75.24,6.43-90.28,9.74-12.67,16-20.79c0,0-10.55-.65-20.32,9s-12.4,12.55-14.32,25.28-1.07,53.77-8.14,68.38S239.44,480.16,240.17,482.62Z"/><path class="cls-2" d="M246.31,482.5c.4,2.28,16.37,7.54,29.32-16.47s2.55-70.88,9.48-85.51,7.79-12.47,12.79-20.46c0,0-7.68-.06-15.34,9.57s-9.73,12.49-11.81,24.6-3.63,50.78-9.57,64.94S245.9,480.22,246.31,482.5Z"/><path class="cls-2" d="M251.47,480.74c.1,2.16,10.41,6.05,20.82-18s6.86-68.28,12.56-82.84,6.13-12.55,10-20.59c0,0-5.14.51-11,10.31s-7.42,12.71-9.69,24.49-6.12,49.06-11.13,63.09S251.36,478.57,251.47,480.74Z"/><path class="cls-2" d="M255.3,481.64c-.21,2.09,4.46,4.65,12.49-19.92s11.49-67.19,16-82,4.53-12.92,7.44-21.2c0,0-2.62,1.1-6.68,11.32s-5.2,13.23-7.72,24.95-8.85,48.42-13,62.65S255.5,479.55,255.3,481.64Z"/><path class="cls-1" d="M218.25,420a13.32,13.32,0,1,0-16.12,11.13A13.4,13.4,0,0,0,218.25,420Z"/><path class="cls-3" d="M310.85,268c6.52,5.35,18.42,7.33,20.19,5.72s-4.48-13.13-9.59-17c-4.86-3.64-11.28-4.85-14.48-.54C304.23,259.94,304.33,262.67,310.85,268Z"/><path class="cls-3" d="M312.73,267c4.84,4,13.7,5.44,15,4.25s-3.33-9.76-7.13-12.6c-3.62-2.71-8.39-3.62-10.77-.41C307.8,261,307.88,263,312.73,267Z"/><path class="cls-4" d="M313.82,265.81c3,2.59,8.65,4.28,9.54,3.79s-1.8-5.47-4.15-7.35-5.28-2.76-6.93-1.33C310.86,262.15,310.83,263.23,313.82,265.81Z"/><path class="cls-3" d="M153.76,419.68c6.86-4.92,11.85-15.91,10.75-18s-13.83.93-18.85,4.88c-4.77,3.75-7.61,9.63-4.27,13.84C144.26,424,146.91,424.59,153.76,419.68Z"/><path class="cls-3" d="M153.23,417.59c5.1-3.65,8.81-11.83,8-13.4s-10.29.69-14,3.62c-3.54,2.8-5.65,7.17-3.17,10.3C146.16,420.79,148.14,421.24,153.23,417.59Z"/><path class="cls-4" d="M152.41,416.24c3.27-2.22,6.37-7.25,6.12-8.24s-5.74.32-8.17,2.1-4,4.39-3.08,6.36C148.11,418.15,149.14,418.45,152.41,416.24Z"/><path class="cls-1" d="M367.65,230.13s37.87-16.31,41.42-42.48c9.65-71-96.92-90.23-96.92-90.23"/><path class="cls-5" d="M276.36,130.62c15.14,15.39,27-28.71,29.17-28.26s-16.91,42.81,5.74,40.49-1.65-40.84.65-42.32,16.5,41.81,32.56,25.11-30.64-28.15-29.7-30.72,40.51,20.2,41.11-3.55-41.21,1-41.5-1.3,41.79-17.4,25.11-33.6S312.86,87,310.29,86.07s16.15-43.82-6.4-42.24,3.23,41.36.67,42.51-16.44-42.25-33.05-25.93S299.68,88.07,299,90.68s-39.68-16.78-39.57,5.57,38.89-.56,40.27,1.42S261.22,115.22,276.36,130.62Z"/><path class="cls-6" d="M305.86,100.42a2,2,0,0,0-1.64.42,3.85,3.85,0,0,0-.6.66,12.83,12.83,0,0,0-.87,1.52c-.56,1.14-1.26,2.75-2,4.57l0,.11a134,134,0,0,1-6.19,13c-2.51,4.42-5.24,8.06-8.05,9.75a5.84,5.84,0,0,1-3.92.93,8.24,8.24,0,0,1-4.46-2.65,9.43,9.43,0,0,1-2.77-4.78,7.62,7.62,0,0,1,.62-4.52c1.38-3.18,4.55-6.35,8.39-9.3a119.42,119.42,0,0,1,11.19-7.33l.1-.06c1.61-1,3-1.81,4-2.49a8,8,0,0,0,1.28-1,2.7,2.7,0,0,0,.56-.84,2,2,0,0,0-.2-1.82,2,2,0,0,0-1.4-.83,3.06,3.06,0,0,0-.92,0,10.19,10.19,0,0,0-1.7.44c-1.24.41-2.89,1.07-4.76,1.81h0a128.22,128.22,0,0,1-13.31,4.69c-4.82,1.31-9.25,1.89-12.38,1a6,6,0,0,1-3.44-2.27,9.07,9.07,0,0,1-1.36-5.32,9.76,9.76,0,0,1,1.33-5.49,6.87,6.87,0,0,1,3.51-2.67c3.14-1.17,7.56-1,12.34-.17a117.17,117.17,0,0,1,12.69,3.2l.5.15c1.82.53,3.45,1,4.64,1.26a8,8,0,0,0,1.7.2,2.53,2.53,0,0,0,1-.2A2,2,0,0,0,300.77,91a2,2,0,0,0-.29-1.62,3.57,3.57,0,0,0-.67-.71,10.09,10.09,0,0,0-1.55-1c-1.17-.62-2.84-1.35-4.71-2.17l-.41-.18a128.58,128.58,0,0,1-12.58-6.09c-4.42-2.54-8-5.32-9.58-8.22a6,6,0,0,1-.75-4.13,9.69,9.69,0,0,1,3-4.9,10.13,10.13,0,0,1,5.1-3,7.22,7.22,0,0,1,4.58.7c3.18,1.52,6.29,5,9.14,9.2A125.66,125.66,0,0,1,299,80.88c.09.16.17.32.25.48.94,1.78,1.78,3.36,2.46,4.45a8.45,8.45,0,0,0,1.08,1.44,2.82,2.82,0,0,0,.82.61,2,2,0,0,0,1.7,0,2,2,0,0,0,1.11-1.36,2.89,2.89,0,0,0,0-1,8.75,8.75,0,0,0-.46-1.77c-.43-1.26-1.16-3-2-4.86q-.17-.36-.33-.75c-1.63-3.75-3.66-8.4-5.15-13-1.62-5-2.5-9.74-1.81-13.18a6.58,6.58,0,0,1,2.1-3.87,8.76,8.76,0,0,1,5.25-1.8,9.12,9.12,0,0,1,5.52,1.05,6.92,6.92,0,0,1,2.75,3.57c1.27,3.31,1.19,8.09.44,13.28a137.9,137.9,0,0,1-3,13.82l-.15.61c-.51,2-.95,3.79-1.18,5.11a9.31,9.31,0,0,0-.18,1.81,2.74,2.74,0,0,0,.17,1,2,2,0,0,0,2.95,1,3,3,0,0,0,.74-.71,9.11,9.11,0,0,0,.91-1.59c.57-1.2,1.25-2.92,2-4.87l.24-.63a139.63,139.63,0,0,1,5.6-13c2.39-4.67,5.06-8.52,7.9-10.31a5.86,5.86,0,0,1,4.06-1,9.14,9.14,0,0,1,4.9,2.82,10.29,10.29,0,0,1,3.16,5.06,7.38,7.38,0,0,1-.51,4.62c-1.38,3.23-4.68,6.42-8.76,9.38a113.62,113.62,0,0,1-12.16,7.41l-.56.3c-1.54.84-2.91,1.59-3.91,2.2a11.53,11.53,0,0,0-1.44,1,3.56,3.56,0,0,0-.6.62,2,2,0,0,0-.41,1.47,1.79,1.79,0,0,0,.57,1.12,1.92,1.92,0,0,0,.86.46,2.77,2.77,0,0,0,1,0,9.67,9.67,0,0,0,1.65-.46c1.13-.4,2.67-1,4.43-1.76l.38-.15a128.63,128.63,0,0,1,14-5.08c5.09-1.43,9.79-2.09,13.08-1.18a6,6,0,0,1,3.56,2.38,9.53,9.53,0,0,1,1.28,5.67,10.64,10.64,0,0,1-1.57,5.83,6.87,6.87,0,0,1-3.69,2.63c-3.27,1.07-7.82.65-12.73-.52A121.26,121.26,0,0,1,322.2,95l-.37-.13c-1.87-.68-3.54-1.29-4.76-1.63a8.55,8.55,0,0,0-1.75-.34,2.61,2.61,0,0,0-1,.11,2,2,0,0,0-1.08,2.94,3,3,0,0,0,.68.75,9.72,9.72,0,0,0,1.58,1c1.2.62,2.92,1.36,4.87,2.18l.57.24a143.4,143.4,0,0,1,13.06,6.1c4.67,2.58,8.54,5.42,10.37,8.42a6.42,6.42,0,0,1,1,4.27,9.14,9.14,0,0,1-2.79,5,10,10,0,0,1-5,3.11,6.87,6.87,0,0,1-4.45-.61c-3.12-1.45-6.2-4.85-9.05-9a123.52,123.52,0,0,1-6.87-11.82l-.23-.43c-.92-1.74-1.75-3.29-2.42-4.35a8.74,8.74,0,0,0-1.06-1.39,2.68,2.68,0,0,0-.88-.6,2,2,0,0,0-1.81.16,2.06,2.06,0,0,0-.88,1.35,3.27,3.27,0,0,0,0,1,9.7,9.7,0,0,0,.45,1.76c.41,1.25,1.1,2.92,1.88,4.8.06.14.12.29.19.44a128.54,128.54,0,0,1,4.85,13.09c1.44,4.92,2.15,9.55,1.33,13a7.16,7.16,0,0,1-2.29,4,9.65,9.65,0,0,1-5.4,2,9.12,9.12,0,0,1-5.53-.83,6.23,6.23,0,0,1-2.69-3.3c-1.22-3.13-1.11-7.75-.29-12.8a125.7,125.7,0,0,1,3.34-14l.08-.27c.51-1.83,1-3.44,1.23-4.61a9.79,9.79,0,0,0,.27-1.69,2.73,2.73,0,0,0-.11-1A1.89,1.89,0,0,0,305.86,100.42Zm3.52-15.7h0Zm2.29.71h0Zm2.79,3h0ZM316,94h0Zm-.9,2.29h0Zm-1.74,4.43h0Zm-2.2,1h0Zm-7.17.81v0ZM303,85.93h0Zm2.17-1.05h0Zm-6.84,12h0Zm-.65-5.44h0Zm.82-2.25h0Z"/><path class="cls-7" d="M306.63,96.62a5.4,5.4,0,0,0-1.3-.1,5.22,5.22,0,0,0-.87-2.12,5,5,0,0,0-.57-.69,5.34,5.34,0,0,0,.68-1.59l0-.11a5.4,5.4,0,0,0,2.22-.48,4.73,4.73,0,0,0,.74-.41,6.62,6.62,0,0,0,.66.3l.61.18a4.77,4.77,0,0,0,.54,1.33l0,.08.1,0-.1,0a5.16,5.16,0,0,0-.3,2.45l-.31.19a5.45,5.45,0,0,0-1.31,1.19A6.07,6.07,0,0,0,306.63,96.62Zm2.26-31.07c-.55,3.78-1.47,7.64-2.32,11-1.42-3.27-3-7-4.2-10.74-1.49-4.64-2.05-8.3-1.6-10.58a2.7,2.7,0,0,1,.8-1.64,5,5,0,0,1,2.89-.85,5.06,5.06,0,0,1,3.07.47,2.93,2.93,0,0,1,1.15,1.6C309.52,57.07,309.58,60.77,308.89,65.55Zm-2.66,56.52a115.09,115.09,0,0,1,3-12.57,111,111,0,0,1,4.09,11.1c1.32,4.52,1.74,8.1,1.2,10.37a3.24,3.24,0,0,1-1,1.86,5.71,5.71,0,0,1-3.15,1,5.19,5.19,0,0,1-3.08-.33,2.32,2.32,0,0,1-1-1.32C305.53,130.23,305.48,126.72,306.23,122.07Zm17.7-29.87a108,108,0,0,1,10.66-3.79c4.7-1.32,8.29-1.67,10.37-1.1a2.07,2.07,0,0,1,1.35.82,5.49,5.49,0,0,1,.6,3.24,6.52,6.52,0,0,1-.85,3.56,3,3,0,0,1-1.66,1.12c-2.08.68-5.51.51-10-.56A98.71,98.71,0,0,1,323.93,92.2Zm-5.76-10.66a122.42,122.42,0,0,1,5-11.5c2.22-4.33,4.36-7.16,6.15-8.29a2,2,0,0,1,1.42-.44A5.4,5.4,0,0,1,333.35,63a6.41,6.41,0,0,1,2,3,3.43,3.43,0,0,1-.3,2.17c-.89,2.09-3.31,4.62-7,7.32A94.43,94.43,0,0,1,318.17,81.54Zm7.8,32.35a112.48,112.48,0,0,1-6.05-10.38c3.36,1.43,7.17,3.1,10.66,5,4.31,2.38,7.21,4.68,8.4,6.63a2.5,2.5,0,0,1,.5,1.7,5.31,5.31,0,0,1-1.66,2.69,6,6,0,0,1-2.84,1.91,2.93,2.93,0,0,1-2-.32C331,120.2,328.59,117.71,326,113.89ZM296.19,83.1l-.39-.17-.33-.15A119.78,119.78,0,0,1,284,77.23c-4.07-2.34-6.66-4.54-7.64-6.33a2.19,2.19,0,0,1-.34-1.53,5.9,5.9,0,0,1,1.85-2.75,6.12,6.12,0,0,1,3-1.87,3.28,3.28,0,0,1,2.12.37c2.08,1,4.55,3.56,7.16,7.42A110.77,110.77,0,0,1,296.19,83.1Zm-4.4,11.48a112.5,112.5,0,0,1-11.88,4.18c-4.44,1.21-7.78,1.5-9.74,1a2.15,2.15,0,0,1-1.29-.78,5.14,5.14,0,0,1-.63-3,5.79,5.79,0,0,1,.67-3.21,3,3,0,0,1,1.58-1.13c2-.75,5.35-.76,9.72,0a106.4,106.4,0,0,1,11.56,2.93Zm6.1,10.77-.07.15a123.12,123.12,0,0,1-5.63,11.8c-2.31,4.08-4.5,6.78-6.29,7.85a2,2,0,0,1-1.34.41,4.32,4.32,0,0,1-2.19-1.47,5.33,5.33,0,0,1-1.65-2.67,3.6,3.6,0,0,1,.35-2.18c.92-2.11,3.27-4.64,6.77-7.32A105,105,0,0,1,297.89,105.35Z"/><path class="cls-6" d="M306.18,99.39a1.93,1.93,0,0,0-1.61.41,3.83,3.83,0,0,0-.57.62,11,11,0,0,0-.77,1.35c-.5,1-1.1,2.41-1.79,4l0,.1A118.35,118.35,0,0,1,296,117.13c-2.18,3.84-4.54,7-6.94,8.41a4.91,4.91,0,0,1-3.26.78,6.87,6.87,0,0,1-3.76-2.25,8,8,0,0,1-2.36-4,6.46,6.46,0,0,1,.53-3.81c1.18-2.71,3.9-5.45,7.24-8a102.45,102.45,0,0,1,9.73-6.37l.08,0c1.4-.83,2.64-1.58,3.5-2.17a7.81,7.81,0,0,0,1.15-.94,2.69,2.69,0,0,0,.53-.81,1.92,1.92,0,0,0-.2-1.79,2,2,0,0,0-1.37-.81,2.66,2.66,0,0,0-.86,0,9.2,9.2,0,0,0-1.52.39c-1.08.36-2.53.93-4.16,1.58h0a112.41,112.41,0,0,1-11.57,4.08c-4.19,1.14-8,1.62-10.67.88a5,5,0,0,1-2.87-1.9,7.69,7.69,0,0,1-1.15-4.5,8.27,8.27,0,0,1,1.13-4.67,5.78,5.78,0,0,1,2.94-2.23c2.68-1,6.48-.87,10.64-.14a104.17,104.17,0,0,1,11,2.78l.43.13c1.59.47,3,.88,4.06,1.1a7.5,7.5,0,0,0,1.53.18,2.49,2.49,0,0,0,1-.19,2,2,0,0,0,1.13-1.31,2,2,0,0,0-.29-1.58,3.18,3.18,0,0,0-.63-.67,9,9,0,0,0-1.38-.85c-1-.54-2.49-1.19-4.12-1.9l-.36-.16A111.17,111.17,0,0,1,284.2,81c-3.84-2.21-6.91-4.6-8.25-7.07a5,5,0,0,1-.63-3.46,8.3,8.3,0,0,1,2.57-4.15,8.66,8.66,0,0,1,4.34-2.56,6.08,6.08,0,0,1,3.85.6c2.71,1.29,5.39,4.26,7.87,7.93a110,110,0,0,1,6,10.38l.22.42C301,84.66,301.69,86,302.3,87a7.73,7.73,0,0,0,1,1.29,2.71,2.71,0,0,0,.78.57,2,2,0,0,0,2.76-1.3,2.81,2.81,0,0,0,0-1,8.28,8.28,0,0,0-.41-1.59c-.39-1.11-1-2.59-1.74-4.25-.1-.21-.19-.43-.29-.65-1.42-3.27-3.18-7.31-4.48-11.34-1.41-4.37-2.16-8.43-1.57-11.37a5.49,5.49,0,0,1,1.76-3.25,7.53,7.53,0,0,1,4.44-1.51,7.71,7.71,0,0,1,4.68.88,5.81,5.81,0,0,1,2.3,3c1.09,2.83,1,6.94.37,11.46a119.43,119.43,0,0,1-2.58,12c0,.17-.08.35-.13.52-.44,1.75-.83,3.31-1,4.47A7.89,7.89,0,0,0,308,86.6a2.69,2.69,0,0,0,.16.92,2,2,0,0,0,1.16,1.19,1.93,1.93,0,0,0,1.73-.21,2.89,2.89,0,0,0,.71-.66,8.1,8.1,0,0,0,.81-1.43c.51-1.06,1.1-2.56,1.76-4.26l.21-.54a120.88,120.88,0,0,1,4.87-11.31c2.08-4.06,4.38-7.37,6.8-8.89a4.85,4.85,0,0,1,3.39-.84,7.78,7.78,0,0,1,4.14,2.4,8.77,8.77,0,0,1,2.7,4.3,6.18,6.18,0,0,1-.44,3.89c-1.18,2.74-4,5.5-7.55,8.07a99.8,99.8,0,0,1-10.57,6.44l-.49.26c-1.34.73-2.53,1.39-3.41,1.92a11.08,11.08,0,0,0-1.29.88,3.47,3.47,0,0,0-.56.58,2,2,0,0,0-.39,1.44,1.81,1.81,0,0,0,1.42,1.56,2.45,2.45,0,0,0,1,0,7.89,7.89,0,0,0,1.48-.41c1-.35,2.34-.9,3.87-1.53l.33-.14A113.87,113.87,0,0,1,332,85.84c4.42-1.25,8.46-1.8,11.27-1a5,5,0,0,1,3,2,8,8,0,0,1,1.08,4.81,9,9,0,0,1-1.33,5,5.73,5.73,0,0,1-3.1,2.21c-2.78.91-6.69.56-11-.46a104.63,104.63,0,0,1-11.44-3.65l-.32-.11c-1.63-.6-3.09-1.12-4.17-1.43a7,7,0,0,0-1.56-.3,2.58,2.58,0,0,0-1,.1,2,2,0,0,0-1.25,1.18,2,2,0,0,0,.19,1.71,2.7,2.7,0,0,0,.65.71,8.65,8.65,0,0,0,1.41.86c1.06.55,2.56,1.19,4.25,1.91l.5.21a122.72,122.72,0,0,1,11.35,5.3c4.07,2.24,7.4,4.7,8.95,7.25a5.33,5.33,0,0,1,.88,3.57,7.75,7.75,0,0,1-2.36,4.2,8.47,8.47,0,0,1-4.2,2.65A5.78,5.78,0,0,1,330,122c-2.66-1.23-5.32-4.15-7.79-7.78a104.9,104.9,0,0,1-6-10.27l-.2-.37c-.8-1.52-1.53-2.87-2.12-3.8a7.29,7.29,0,0,0-.95-1.26,2.75,2.75,0,0,0-.84-.57,1.93,1.93,0,0,0-1.77.16,2,2,0,0,0-.87,1.33,2.83,2.83,0,0,0,0,.91,8.52,8.52,0,0,0,.4,1.58c.37,1.09,1,2.56,1.65,4.19l.16.38a114.78,114.78,0,0,1,4.22,11.39c1.25,4.28,1.86,8.26,1.16,11.19a6.1,6.1,0,0,1-1.93,3.35,8.15,8.15,0,0,1-4.58,1.68,7.77,7.77,0,0,1-4.69-.69,5.16,5.16,0,0,1-2.24-2.77c-1-2.67-1-6.63-.25-11a110.63,110.63,0,0,1,2.91-12.18l.06-.25c.45-1.59.85-3,1.08-4a9,9,0,0,0,.24-1.51,2.69,2.69,0,0,0-.1-.91A1.88,1.88,0,0,0,306.18,99.39ZM303.45,87h0ZM309,85.79h0Zm2.38.74h0Zm3.7,7.31h0Zm-.94,2.38h0Zm-1.29,3.63Zm-2.28,1.05Zm-3.8,1.47Zm-2.52-.93h0Zm-3.71-2.8h0Zm-1.13-2.3s0,0,0,0Zm-.55-4.44h0Zm.86-2.33s0,0,0,0Zm6-3.66h0Z"/><path class="cls-6" d="M305.87,99.69a1.94,1.94,0,0,0-1.6.41,3.32,3.32,0,0,0-.56.6A9.72,9.72,0,0,0,303,102c-.48.94-1.05,2.28-1.69,3.77l-.05.1a109.44,109.44,0,0,1-5.09,10.66c-2.06,3.63-4.28,6.58-6.53,7.92a4.53,4.53,0,0,1-3,.73,6.49,6.49,0,0,1-3.51-2.1,7.43,7.43,0,0,1-2.2-3.79,5.92,5.92,0,0,1,.49-3.55c1.11-2.55,3.67-5.12,6.82-7.55a97.8,97.8,0,0,1,9.21-6l.08,0c1.32-.79,2.5-1.5,3.31-2.06a7.64,7.64,0,0,0,1.11-.9,2.69,2.69,0,0,0,.51-.79,1.89,1.89,0,0,0-.19-1.78,2,2,0,0,0-1.37-.81,2.81,2.81,0,0,0-.83,0,10.18,10.18,0,0,0-1.46.38c-1,.34-2.4.89-3.94,1.5h0a105.5,105.5,0,0,1-11,3.85c-4,1.08-7.55,1.54-10,.84a4.67,4.67,0,0,1-2.67-1.76,7.19,7.19,0,0,1-1.07-4.21A7.74,7.74,0,0,1,270.91,92,5.44,5.44,0,0,1,273.65,90c2.52-.94,6.09-.82,10-.12a97.34,97.34,0,0,1,10.44,2.63l.41.12c1.5.44,2.85.83,3.84,1a6.88,6.88,0,0,0,1.48.18,2.48,2.48,0,0,0,1-.2,1.89,1.89,0,0,0,1.11-1.29,2,2,0,0,0-.28-1.58,3,3,0,0,0-.62-.65,8.28,8.28,0,0,0-1.32-.82c-1-.51-2.36-1.12-3.9-1.8l-.34-.14a108.5,108.5,0,0,1-10.35-5c-3.63-2.09-6.52-4.35-7.78-6.66a4.67,4.67,0,0,1-.58-3.21,7.75,7.75,0,0,1,2.4-3.88,8.13,8.13,0,0,1,4.06-2.4,5.68,5.68,0,0,1,3.59.56c2.55,1.21,5.07,4,7.42,7.48A104.18,104.18,0,0,1,299.85,84l.21.4c.77,1.46,1.47,2.77,2,3.69a7.43,7.43,0,0,0,.93,1.24,3,3,0,0,0,.76.56,2,2,0,0,0,1.65,0,1.91,1.91,0,0,0,1.08-1.32,2.73,2.73,0,0,0,.05-1,7.44,7.44,0,0,0-.4-1.52c-.36-1.05-1-2.46-1.65-4l-.27-.62c-1.35-3.09-3-6.91-4.24-10.73-1.33-4.13-2-7.95-1.48-10.71a5.09,5.09,0,0,1,1.63-3,7,7,0,0,1,4.16-1.41,7.23,7.23,0,0,1,4.37.82,5.4,5.4,0,0,1,2.15,2.79c1,2.66,1,6.53.34,10.8a113.85,113.85,0,0,1-2.44,11.37l-.12.5c-.42,1.65-.79,3.13-1,4.23a8,8,0,0,0-.16,1.56,3.23,3.23,0,0,0,.16.91,2,2,0,0,0,1.16,1.17,1.9,1.9,0,0,0,1.71-.2,2.43,2.43,0,0,0,.69-.65,7.81,7.81,0,0,0,.79-1.37c.48-1,1-2.43,1.66-4,.07-.16.14-.33.2-.51,1.24-3.18,2.77-7.11,4.6-10.69,2-3.85,4.14-7,6.41-8.39a4.55,4.55,0,0,1,3.15-.78,7.29,7.29,0,0,1,3.87,2.25,8.32,8.32,0,0,1,2.53,4A5.79,5.79,0,0,1,334,73c-1.11,2.57-3.77,5.17-7.12,7.6a94.29,94.29,0,0,1-10,6.09l-.46.25c-1.27.69-2.4,1.31-3.23,1.82a10.91,10.91,0,0,0-1.23.84,3.33,3.33,0,0,0-.54.57,1.93,1.93,0,0,0-.4,1.42,1.85,1.85,0,0,0,1.41,1.56,2.45,2.45,0,0,0,1,0,8.59,8.59,0,0,0,1.41-.39c.94-.33,2.22-.86,3.67-1.46l.31-.13A108.48,108.48,0,0,1,330.27,87c4.19-1.18,8-1.7,10.62-1a4.67,4.67,0,0,1,2.76,1.85,7.47,7.47,0,0,1,1,4.49,8.44,8.44,0,0,1-1.24,4.65,5.43,5.43,0,0,1-2.89,2.06c-2.61.85-6.29.52-10.33-.44a101.9,101.9,0,0,1-10.82-3.45l-.3-.11c-1.54-.56-2.93-1.06-3.95-1.35a7.61,7.61,0,0,0-1.51-.3,2.7,2.7,0,0,0-.95.11,1.91,1.91,0,0,0-1.05,2.87,2.77,2.77,0,0,0,.63.7,7.93,7.93,0,0,0,1.35.82c1,.52,2.43,1.13,4,1.81l.47.2a115,115,0,0,1,10.74,5c3.85,2.12,7,4.44,8.44,6.83a5,5,0,0,1,.82,3.33,7.23,7.23,0,0,1-2.22,3.92,7.86,7.86,0,0,1-3.92,2.48,5.44,5.44,0,0,1-3.48-.48c-2.5-1.16-5-3.91-7.34-7.34a101.47,101.47,0,0,1-5.66-9.72l-.18-.34c-.76-1.44-1.45-2.72-2-3.61a6.64,6.64,0,0,0-.92-1.21,2.62,2.62,0,0,0-.82-.55,1.88,1.88,0,0,0-1.76.16,2,2,0,0,0-.87,1.31,3,3,0,0,0,0,.89,8.35,8.35,0,0,0,.38,1.51c.35,1,.92,2.43,1.56,4l.15.36a107,107,0,0,1,4,10.77c1.19,4,1.75,7.8,1.1,10.55a5.63,5.63,0,0,1-1.8,3.12,7.61,7.61,0,0,1-4.29,1.57,7.22,7.22,0,0,1-4.38-.65,4.77,4.77,0,0,1-2.08-2.57c-1-2.5-.9-6.23-.23-10.4a105.33,105.33,0,0,1,2.75-11.52l.06-.23c.43-1.5.81-2.83,1-3.81a9,9,0,0,0,.22-1.45,2.6,2.6,0,0,0-.1-.89A1.86,1.86,0,0,0,305.87,99.69Zm-2.69-11.63h0Zm5.3-1.22h0Zm2.41.76h0Zm2,2.22h0Zm1.5,4.64h0Zm-.94,2.41Zm-1.14,3.33h0ZM310,101.27h0Zm-3.46,1.39Zm-2.55-.94s0,0,0,0Zm-3.41-2.56h0Zm-1.15-2.33h0Zm-.51-4.07h0Zm.87-2.37Z"/><path class="cls-6" d="M305.84,99.42a1.93,1.93,0,0,0-1.59.4,3.44,3.44,0,0,0-.54.59,9.14,9.14,0,0,0-.7,1.22c-.44.89-1,2.14-1.58,3.53l0,.1a102.36,102.36,0,0,1-4.76,10c-1.92,3.4-4,6.13-6.07,7.37a4,4,0,0,1-2.76.66,5.87,5.87,0,0,1-3.22-1.92,6.93,6.93,0,0,1-2-3.49,5.5,5.5,0,0,1,.45-3.26c1-2.35,3.4-4.75,6.35-7a91.79,91.79,0,0,1,8.6-5.63l.07,0c1.24-.74,2.35-1.4,3.11-1.93a6.89,6.89,0,0,0,1.05-.86,2.55,2.55,0,0,0,.51-.78,1.89,1.89,0,0,0-.2-1.76,2,2,0,0,0-1.35-.81,3,3,0,0,0-.81,0,7.83,7.83,0,0,0-1.38.36c-1,.32-2.26.83-3.69,1.4h0a100.2,100.2,0,0,1-10.22,3.6c-3.71,1-7,1.43-9.35.78a4.18,4.18,0,0,1-2.43-1.6,6.54,6.54,0,0,1-1-3.87,7.18,7.18,0,0,1,1-4,4.89,4.89,0,0,1,2.51-1.9c2.32-.87,5.64-.76,9.32-.12a93.47,93.47,0,0,1,9.75,2.46l.38.12c1.4.41,2.67.78,3.6,1a6.24,6.24,0,0,0,1.41.17,2.35,2.35,0,0,0,.93-.19,1.88,1.88,0,0,0,1.1-1.29,2,2,0,0,0-.28-1.56,2.82,2.82,0,0,0-.6-.63,8.34,8.34,0,0,0-1.25-.78c-.92-.48-2.22-1-3.66-1.68l-.31-.14a99.25,99.25,0,0,1-9.67-4.68c-3.4-2-6.07-4-7.23-6.18a4.24,4.24,0,0,1-.54-2.93,7,7,0,0,1,2.22-3.57,7.44,7.44,0,0,1,3.74-2.22,5.18,5.18,0,0,1,3.29.51c2.35,1.12,4.7,3.72,6.89,7a94.4,94.4,0,0,1,5.28,9.17l.2.37c.72,1.37,1.37,2.6,1.91,3.46a7.1,7.1,0,0,0,.88,1.18,2.69,2.69,0,0,0,.75.54,1.91,1.91,0,0,0,2.71-1.28,2.59,2.59,0,0,0,0-.94,7.41,7.41,0,0,0-.38-1.45c-.34-1-.9-2.31-1.54-3.77-.08-.19-.17-.38-.25-.58-1.27-2.9-2.82-6.46-4-10-1.24-3.86-1.89-7.41-1.38-10a4.73,4.73,0,0,1,1.49-2.77,6.43,6.43,0,0,1,3.82-1.29,6.66,6.66,0,0,1,4,.75,5,5,0,0,1,2,2.56c.94,2.45.89,6,.32,10a107.48,107.48,0,0,1-2.28,10.62l-.12.46c-.39,1.55-.74,2.94-.92,4a7,7,0,0,0-.14,1.48,2.74,2.74,0,0,0,.15.89,2,2,0,0,0,1.15,1.16,1.91,1.91,0,0,0,1.7-.2,2.66,2.66,0,0,0,.68-.64,7.93,7.93,0,0,0,.74-1.29c.45-1,1-2.29,1.56-3.79.06-.15.12-.31.19-.47a103.47,103.47,0,0,1,4.3-10c1.84-3.6,3.86-6.48,5.95-7.8a4.15,4.15,0,0,1,2.87-.71,6.63,6.63,0,0,1,3.56,2.07,7.54,7.54,0,0,1,2.33,3.7,5.33,5.33,0,0,1-.37,3.33c-1,2.38-3.49,4.79-6.63,7.07a86,86,0,0,1-9.34,5.68l-.42.24c-1.19.65-2.25,1.23-3,1.7a9.51,9.51,0,0,0-1.17.8,3.11,3.11,0,0,0-.52.55,2,2,0,0,0-.39,1.41,1.8,1.8,0,0,0,.56,1.1,1.88,1.88,0,0,0,.84.45,2.35,2.35,0,0,0,.95,0,7.52,7.52,0,0,0,1.34-.37c.88-.31,2.08-.8,3.43-1.36l.29-.12a102.11,102.11,0,0,1,10.73-3.91c3.92-1.1,7.45-1.57,9.88-.91a4.29,4.29,0,0,1,2.52,1.68,7,7,0,0,1,.92,4.15A7.73,7.73,0,0,1,340.85,97a5,5,0,0,1-2.65,1.89c-2.41.78-5.83.48-9.6-.42a90.81,90.81,0,0,1-10.11-3.23l-.28-.1c-1.44-.52-2.74-1-3.7-1.26a7.52,7.52,0,0,0-1.43-.28,2.77,2.77,0,0,0-.93.1,1.94,1.94,0,0,0-1.23,1.16,1.91,1.91,0,0,0,.18,1.69,2.63,2.63,0,0,0,.62.68A7.27,7.27,0,0,0,313,98c.94.49,2.28,1.06,3.78,1.7l.43.18a106.83,106.83,0,0,1,10,4.69c3.6,2,6.51,4.13,7.85,6.35a4.48,4.48,0,0,1,.75,3,6.61,6.61,0,0,1-2,3.6,7.28,7.28,0,0,1-3.61,2.29,4.9,4.9,0,0,1-3.19-.44c-2.31-1.07-4.63-3.62-6.82-6.82a92.84,92.84,0,0,1-5.28-9.09l-.18-.32c-.71-1.34-1.35-2.55-1.88-3.38a6.68,6.68,0,0,0-.87-1.15,2.56,2.56,0,0,0-.81-.54,1.89,1.89,0,0,0-1.75.16,1.92,1.92,0,0,0-.85,1.3,2.59,2.59,0,0,0,0,.87,8.1,8.1,0,0,0,.36,1.43c.33,1,.86,2.28,1.46,3.73.05.11.1.22.14.33A100.67,100.67,0,0,1,314.25,116c1.1,3.79,1.63,7.28,1,9.82a5.19,5.19,0,0,1-1.64,2.86,7.06,7.06,0,0,1-4,1.44,6.68,6.68,0,0,1-4-.59,4.42,4.42,0,0,1-1.9-2.35c-.9-2.31-.83-5.78-.2-9.67a96.62,96.62,0,0,1,2.56-10.76l.06-.22c.4-1.4.75-2.65,1-3.57a8,8,0,0,0,.21-1.37,2.7,2.7,0,0,0-.09-.87A1.85,1.85,0,0,0,305.84,99.42Zm-2.65-10.77h0Zm5-1.21h0Zm2.46.77h0Zm1.72,2h0Zm1.25,2.49Zm.24,1.88h0Zm-1,2.44h0S312.87,97,312.88,97Zm-.95,3h0Zm-5.42,2.38h0Zm-2.58-.94Zm-3.08-2.29h0Zm-1.63-6h0Zm6.29-5.6h0S305.52,87.54,305.51,87.53Z"/><path class="cls-8" d="M306.45,96.73a4.78,4.78,0,0,0-1-.08,3.82,3.82,0,0,0-.67-1.65,3.72,3.72,0,0,0-.46-.56,4,4,0,0,0,.54-1.24.35.35,0,0,0,0-.13,4,4,0,0,0,1.73-.36,4.25,4.25,0,0,0,.6-.33,3.69,3.69,0,0,0,.53.24,4.58,4.58,0,0,0,.49.15,4,4,0,0,0,.43,1.06l0,.09a3.78,3.78,0,0,0-.22,1.89l-.28.17.52.8h0l-.52-.8a4,4,0,0,0-1,.93A5.38,5.38,0,0,0,306.45,96.73Zm2,9.7v0a88.36,88.36,0,0,1,3.21,8.69c1,3.48,1.34,6.24.92,8a2.54,2.54,0,0,1-.79,1.46,4.37,4.37,0,0,1-2.44.82,4.14,4.14,0,0,1-2.41-.26,1.88,1.88,0,0,1-.78-1c-.6-1.55-.64-4.26-.06-7.84A87.78,87.78,0,0,1,308.44,106.43ZM321.28,110a88.16,88.16,0,0,1-4.73-8.13c2.62,1.12,5.61,2.42,8.35,3.93,3.31,1.83,5.56,3.6,6.48,5.12a2,2,0,0,1,.39,1.34,4,4,0,0,1-1.29,2.1,4.73,4.73,0,0,1-2.21,1.49,2.36,2.36,0,0,1-1.53-.26C325.17,114.85,323.29,112.92,321.28,110ZM306.43,81.46c-1.11-2.55-2.36-5.49-3.3-8.41-1.15-3.57-1.58-6.4-1.23-8.17a2.12,2.12,0,0,1,.64-1.29,3.82,3.82,0,0,1,2.25-.67,4,4,0,0,1,2.39.37,2.35,2.35,0,0,1,.91,1.26c.65,1.71.7,4.57.17,8.24A87,87,0,0,1,306.43,81.46Zm8.79,3.75c1.08-2.77,2.36-6,3.87-9,1.71-3.32,3.36-5.52,4.75-6.39a1.56,1.56,0,0,1,1.13-.34A4.07,4.07,0,0,1,327,70.79a4.93,4.93,0,0,1,1.54,2.33,2.63,2.63,0,0,1-.22,1.7c-.7,1.63-2.57,3.58-5.43,5.66A74.55,74.55,0,0,1,315.22,85.21Zm4.38,8.07a80.49,80.49,0,0,1,8.34-3c3.62-1,6.38-1.29,8-.85a1.77,1.77,0,0,1,1.08.65,4.38,4.38,0,0,1,.46,2.53,5.12,5.12,0,0,1-.66,2.77,2.33,2.33,0,0,1-1.3.88c-1.62.53-4.27.39-7.73-.43A77.18,77.18,0,0,1,319.6,93.28Zm-19.74,10-.06.15-.06.13a93.21,93.21,0,0,1-4.33,9.08c-1.78,3.14-3.47,5.22-4.86,6.06a1.66,1.66,0,0,1-1.06.32,3.37,3.37,0,0,1-1.72-1.15,4.26,4.26,0,0,1-1.29-2.08,2.88,2.88,0,0,1,.28-1.71c.71-1.64,2.53-3.58,5.22-5.65a84.35,84.35,0,0,1,7.86-5.14Zm-1.3-16.84-.44-.2-.26-.11A92.1,92.1,0,0,1,289,81.82c-3.13-1.8-5.13-3.5-5.89-4.89a1.8,1.8,0,0,1-.27-1.21,4.49,4.49,0,0,1,1.44-2.15,4.75,4.75,0,0,1,2.32-1.45,2.57,2.57,0,0,1,1.66.29c1.62.77,3.52,2.75,5.54,5.72A85.66,85.66,0,0,1,298.56,86.4Zm-3.33,8.7a93.59,93.59,0,0,1-9.29,3.28c-3.42.93-6,1.15-7.52.73a1.7,1.7,0,0,1-1-.62,4.08,4.08,0,0,1-.49-2.31,4.4,4.4,0,0,1,.53-2.5,2.39,2.39,0,0,1,1.23-.89c1.56-.58,4.15-.58,7.51,0a81.11,81.11,0,0,1,8.89,2.25Z"/><path class="cls-9" d="M311.33,91.62a4.26,4.26,0,0,1-2.49,5.59,4.23,4.23,0,0,1-3.19-7.79A4.25,4.25,0,0,1,311.33,91.62Z"/><path class="cls-2" d="M451.86,5.25c-.77-2.45-23.2-8.94-38.77,15.86s3.08,75.2-5.08,90.36-9.56,12.81-15.68,21c0,0,10.56.49,20.18-9.31s12.22-12.73,13.95-25.48.27-53.78,7.12-68.5S452.62,7.71,451.86,5.25Z"/><path class="cls-2" d="M445.72,5.47c-.44-2.28-16.48-7.3-29.08,16.91s-1.49,70.9-8.2,85.64S400.83,120.6,396,128.66c0,0,7.68,0,15.19-9.79s9.55-12.64,11.45-24.78,2.87-50.83,8.6-65.08S446.15,7.75,445.72,5.47Z"/><path class="cls-2" d="M440.58,7.31c-.13-2.16-10.49-5.9-20.56,18.26s-5.84,68.38-11.32,83-5.94,12.64-9.74,20.73c0,0,5.13-.58,10.8-10.47S417,106,419.09,94.22,424.48,45.08,429.28,31,440.72,9.47,440.58,7.31Z"/><path class="cls-2" d="M436.74,6.46c.18-2.09-4.53-4.58-12.19,20.11s-10.5,67.35-14.84,82.24-4.34,13-7.12,21.31c0,0,2.6-1.13,6.51-11.41s5-13.32,7.35-25.07,8.13-48.54,12.07-62.83S436.57,8.56,436.74,6.46Z"/><path class="cls-1" d="M363.58,233.41s40.8,7.88,60.46-4.5c27.12-17.08,39.82-52.43,39.82-52.43"/><path class="cls-8" d="M491.89,168.45c1.24,4.73-3.26,7-4.4,11.73s2.23,9.25-1.4,12.65c-3.36,3.15-7.24.21-11.73,1.24-5.33,1.22-7.87,6.68-13.08,5-4.82-1.54-4-7-7.78-10.36-3.07-2.74-7.05-2-8.88-5.69-2.35-4.75,2.55-7.89,3.53-13.09.87-4.64-1.64-8.42,1.42-12,3.55-4.18,8.6-.71,13.84-2.33,4.38-1.35,6.3-5.7,10.76-4.67,4.63,1.06,4.32,6.06,7.68,9.42C485.41,163.91,490.61,163.57,491.89,168.45Z"/><path class="cls-8" d="M486.52,169.82c1,3.73-2.53,5.49-3.42,9.23s1.76,7.3-1.07,10c-2.63,2.47-5.67.16-9.18,1-4.17,1-6.15,5.25-10.22,3.92-3.78-1.22-3.16-5.51-6.11-8.17-2.41-2.17-5.52-1.59-7-4.51-1.84-3.74,2-6.21,2.74-10.31.68-3.65-1.3-6.63,1.09-9.46,2.77-3.28,6.73-.55,10.83-1.81,3.42-1.06,4.91-4.48,8.41-3.66s3.39,4.78,6,7.43C481.44,166.23,485.52,166,486.52,169.82Z"/><path class="cls-10" d="M482.08,171.22c.75,2.85-1.92,4.19-2.58,7.06s1.35,5.58-.8,7.62c-2,1.89-4.31.11-7,.72-3.17.72-4.67,4-7.77,3-2.87-.94-2.41-4.22-4.66-6.26-1.83-1.67-4.2-1.23-5.29-3.46-1.41-2.86,1.5-4.75,2.07-7.88.5-2.8-1-5.08.81-7.24,2.1-2.51,5.12-.41,8.23-1.37,2.6-.8,3.73-3.42,6.39-2.79s2.59,3.67,4.59,5.7S481.31,168.28,482.08,171.22Z"/><path class="cls-10" d="M479.06,171.9c.58,2.24-1.49,3.29-2,5.53s1.06,4.38-.61,6-3.36.08-5.44.56c-2.47.56-3.63,3.13-6.05,2.33-2.24-.74-1.88-3.31-3.64-4.91-1.43-1.31-3.27-1-4.13-2.72-1.1-2.25,1.16-3.72,1.6-6.17.39-2.19-.78-4,.63-5.67,1.63-2,4-.32,6.41-1.07,2-.62,2.9-2.67,5-2.17s2,2.87,3.59,4.47S478.45,169.59,479.06,171.9Z"/><path class="cls-10" d="M476.71,172.72c.46,1.75-1.17,2.57-1.57,4.32s.82,3.43-.49,4.68-2.63.06-4.26.44c-1.93.44-2.85,2.45-4.74,1.82s-1.47-2.59-2.85-3.84c-1.12-1-2.57-.76-3.24-2.13-.86-1.75.91-2.91,1.26-4.83.31-1.71-.61-3.11.49-4.44,1.28-1.53,3.13-.24,5-.83,1.58-.49,2.27-2.09,3.9-1.71s1.58,2.25,2.81,3.5S476.24,170.91,476.71,172.72Z"/><path class="cls-11" d="M472.91,173.56a5.3,5.3,0,0,1-3.87,6.56,5.25,5.25,0,0,1-2.85-10A5.27,5.27,0,0,1,472.91,173.56Z"/><path class="cls-12" d="M468.23,176.46a1.49,1.49,0,1,0-.81-2.85,1.49,1.49,0,0,0,.81,2.85Z"/><path class="cls-13" d="M277.45,202.34c.52,4.86-4.27,6.4-6.11,10.93s.82,9.48-3.28,12.3c-3.79,2.61-7.19-.88-11.78-.54-5.46.41-8.79,5.43-13.69,3-4.53-2.25-2.92-7.51-6.14-11.41-2.62-3.17-6.66-3-7.92-7-1.61-5,3.7-7.42,5.45-12.42,1.56-4.45-.36-8.56,3.21-11.65,4.13-3.6,8.61.58,14-.23,4.53-.68,7.08-4.69,11.34-3,4.42,1.74,3.37,6.64,6.18,10.47C271.72,196.88,276.92,197.32,277.45,202.34Z"/><path class="cls-13" d="M271.94,202.88c.41,3.84-3.33,5.05-4.77,8.62s.65,7.47-2.55,9.69c-3,2.06-5.63-.69-9.22-.42-4.27.31-6.87,4.26-10.7,2.34-3.55-1.77-2.29-5.92-4.81-9-2.06-2.5-5.22-2.4-6.2-5.49-1.27-4,2.89-5.85,4.25-9.79,1.22-3.51-.29-6.75,2.5-9.19,3.23-2.83,6.73.47,11-.17,3.55-.53,5.53-3.69,8.87-2.36s2.63,5.24,4.84,8.26C267.46,198.57,271.52,198.93,271.94,202.88Z"/><path class="cls-14" d="M267.34,203.6c.31,2.94-2.53,3.86-3.62,6.59s.5,5.72-1.93,7.41c-2.25,1.57-4.28-.53-7-.33-3.24.24-5.21,3.26-8.13,1.79-2.7-1.36-1.74-4.53-3.66-6.89-1.56-1.92-4-1.84-4.72-4.21-1-3,2.19-4.47,3.23-7.48.92-2.69-.23-5.17,1.89-7,2.46-2.17,5.12.36,8.34-.12,2.69-.4,4.2-2.82,6.74-1.8s2,4,3.68,6.32S267,200.58,267.34,203.6Z"/><path class="cls-14" d="M264.25,203.82c.24,2.3-2,3-2.82,5.17s.39,4.48-1.5,5.81-3.33-.42-5.46-.27c-2.53.19-4.06,2.56-6.33,1.4-2.11-1.07-1.37-3.55-2.86-5.4-1.22-1.51-3.09-1.45-3.68-3.31-.75-2.38,1.71-3.5,2.51-5.86.72-2.11-.18-4.05,1.47-5.51,1.91-1.7,4,.29,6.5-.09,2.09-.32,3.27-2.21,5.24-1.41s1.57,3.15,2.88,5S264,201.45,264.25,203.82Z"/><path class="cls-14" d="M261.8,204.28c.19,1.8-1.54,2.36-2.2,4s.3,3.51-1.18,4.55-2.61-.33-4.28-.21c-2,.15-3.18,2-5,1.1s-1.07-2.78-2.24-4.23c-1-1.18-2.43-1.13-2.88-2.59-.59-1.86,1.33-2.74,2-4.59.56-1.64-.14-3.17,1.15-4.31,1.5-1.33,3.13.22,5.1-.07,1.64-.25,2.56-1.73,4.11-1.1s1.23,2.46,2.25,3.88S261.61,202.42,261.8,204.28Z"/><path class="cls-15" d="M257.92,204.54a5.29,5.29,0,0,1-4.81,5.9,5.24,5.24,0,0,1-1.32-10.35A5.28,5.28,0,0,1,257.92,204.54Z"/><path class="cls-16" d="M252.86,206.71a1.49,1.49,0,1,0-.38-2.94,1.49,1.49,0,0,0,.38,2.94Z"/><path class="cls-17" d="M35.83,441c9,1.93,14-5.89,22.21-10,7.54-3.75,14.05.48,18.5-6.68,4.21-6.77-.8-10.91.49-18.77,1.48-9,9.34-14.15,6.28-22.77-3.23-9.06-11.19-5.11-18.78-11-6.56-5.11-7.93-15-16.16-16.26-8.48-1.25-10.47,8.76-18.46,11.87-7.3,2.84-14.43-2-19.7,3.75-5.77,6.33.79,13.46-.54,21.91-1.45,9.2-8.95,14.05-5.24,22.05S16.24,420,23,425.65C30,431.49,27,439.13,35.83,441Z"/><path class="cls-17" d="M36.72,435.47c7.81,1.68,12.17-5.13,19.32-8.68,6.57-3.27,12.23.41,16.1-5.82,3.66-5.89-.69-9.49.43-16.33,1.29-7.86,8.13-12.31,5.46-19.81-2.81-7.89-9.73-4.45-16.34-9.6-5.71-4.45-6.9-13.09-14.06-14.15-7.38-1.09-9.12,7.62-16.07,10.32-6.35,2.48-12.55-1.76-17.14,3.27-5,5.51.69,11.71-.47,19.07-1.26,8-7.79,12.22-4.56,19.18s10.28,4.22,16.16,9.16C31.61,427.16,29,433.81,36.72,435.47Z"/><path class="cls-17" d="M37.55,430.39c6.78,1.46,10.57-4.45,16.79-7.54,5.7-2.84,10.63.36,14-5.06,3.18-5.11-.6-8.24.37-14.19,1.12-6.82,7.06-10.69,4.75-17.21-2.44-6.86-8.46-3.87-14.2-8.34-5-3.87-6-11.37-12.22-12.3-6.41-.95-7.92,6.62-14,9-5.52,2.15-10.91-1.53-14.9,2.85-4.36,4.78.6,10.17-.41,16.56-1.09,6.95-6.76,10.62-4,16.67s8.93,3.67,14,7.95C33.11,423.17,30.83,429,37.55,430.39Z"/><path class="cls-18" d="M38.34,425.78c5.8,1.25,9-3.81,14.37-6.46,4.88-2.43,9.09.31,12-4.32,2.72-4.38-.52-7.06.31-12.14,1-5.84,6.05-9.16,4.06-14.73-2.08-5.87-7.23-3.31-12.14-7.14-4.25-3.31-5.13-9.73-10.46-10.52-5.48-.81-6.78,5.66-11.94,7.68-4.73,1.83-9.34-1.32-12.75,2.43-3.73,4.09.51,8.7-.35,14.17-.94,5.95-5.79,9.09-3.39,14.26s7.64,3.14,12,6.81S32.59,424.54,38.34,425.78Z"/><path class="cls-18" d="M39.73,418.31c4.18.9,6.51-2.74,10.33-4.64,3.51-1.75,6.54.22,8.61-3.11,1.95-3.15-.38-5.07.22-8.73.69-4.2,4.35-6.58,2.92-10.59-1.5-4.21-5.2-2.38-8.73-5.13-3-2.38-3.69-7-7.52-7.56s-4.87,4.07-8.58,5.52c-3.4,1.32-6.71-.95-9.16,1.75-2.69,2.94.36,6.25-.26,10.18-.67,4.28-4.16,6.54-2.43,10.26s5.49,2.25,8.63,4.89S35.6,417.42,39.73,418.31Z"/><path class="cls-18" d="M40.85,412.52c3,.65,4.72-2,7.49-3.37,2.54-1.26,4.74.16,6.24-2.25s-.27-3.68.16-6.33c.5-3,3.15-4.77,2.12-7.67-1.09-3.06-3.77-1.73-6.33-3.72-2.21-1.73-2.68-5.07-5.45-5.48s-3.53,2.95-6.23,4c-2.46.95-4.86-.69-6.64,1.26-1.94,2.13.27,4.54-.18,7.39-.49,3.1-3,4.73-1.76,7.43s4,1.64,6.25,3.55S37.86,411.87,40.85,412.52Z"/><path class="cls-19" d="M47.52,410.33a12.67,12.67,0,1,0-9.58-23.41,12.7,12.7,0,0,0,9.58,23.41Z"/><path class="cls-19" d="M45.93,405.5a7.73,7.73,0,1,0-5.84-14.28,7.75,7.75,0,0,0,5.84,14.28Z"/><path class="cls-20" d="M45.88,397.24a2.8,2.8,0,0,1-1.63,3.68,2.78,2.78,0,0,1-2.1-5.12A2.79,2.79,0,0,1,45.88,397.24Z"/><path class="cls-21" d="M401.23,368.54c-11.09-2.45-11.37-8.43-11.37-8.43s-13.59,3.22-14.36,7.75c-.8,4.71,5.91,7.22,6.41,10.41s-18.43-2.5-25.47,6.71c-5.95,7.77,19.59,5.4,14.38,10.4C364,402,338,394.84,333.32,408.9c-4.81,14.29,19.12,7.77,24,14.68,10.23,14.59-22.64,11.16-21.29,18.54.86,4.75,11.27,5.1,11.24,12.8,0,8.28-6.87,11.42-1.9,14,7.42,3.81,14.36-10.06,20.37-12.87s9.75,7.74,17.63,3.8c8.15-4.06-4.28-12.16,4.34-19.28,2.12-1.74,10.76,9.93,18.1,1.52,11.49-13.14-16.71-24.93-7.68-36.71,5.68-7.41,16.92.83,16.8-8.51-.11-8.39-16.46-9-21.26-12.75C388.61,380.14,407.47,369.92,401.23,368.54Z"/><path class="cls-22" d="M398.41,370.81c-9.27-2.08-11.63-7.54-11.63-7.54s-9.23,3.15-10,7.42c-.77,4.44,4.81,6.66,5.17,9.66s-15.43-2-21.53,6.82c-5.16,7.43,16.34,4.68,11.87,9.49-5.88,6.32-27.53.15-31.78,13.47-4.33,13.53,15.91,6.9,19.84,13.31,8.29,13.51-19.25,10.95-18.27,17.86.63,4.44,9.37,4.56,9.19,11.79-.2,7.79-6,10.88-1.88,13.18,6.15,3.43,12.26-9.75,17.37-12.52s8,7.08,14.73,3.22c6.93-4-3.34-11.34,4-18.21,1.82-1.69,8.84,9.11,15.18,1.06,9.91-12.59-13.54-23.09-5.71-34.35,4.93-7.08,14.2.43,14.29-8.34.08-7.88-13.65-8.09-17.61-11.55C387.57,382,403.62,372,398.41,370.81Z"/><path class="cls-21" d="M383.48,369.72c.42-.24.84-.46,1.24-.66.27.3.57.61.9.92a20.45,20.45,0,0,0,6.83,4.23l-.87,1-.16.18a32.85,32.85,0,0,0-4.07,5.25,8.59,8.59,0,0,0-1.19,3.7,5.74,5.74,0,0,0,1.93,4.69,16.42,16.42,0,0,0,5.54,2.87c.85.29,1.61.54,2.34.77,1.06.34,2.07.67,3.17,1.08a12.14,12.14,0,0,1,3.66,2,2,2,0,0,1,.77,1.62c0,.38,0,.65-.06.82a12.1,12.1,0,0,1-1.35.11l-.55,0c-2.65.08-7.7.22-11.07,5.19A12.67,12.67,0,0,0,389,415a38.64,38.64,0,0,0,4.33,8.25l.48.76c1.77,2.81,3,5.05,3.52,7.17a6.39,6.39,0,0,1-1.43,5.74c-1,1.35-1.7,1.45-1.91,1.47a3.71,3.71,0,0,1-2-.64,18.42,18.42,0,0,1-1.94-1.24c-.38-.26-.78-.55-1.26-.86a9,9,0,0,0-2.23-1.13,4.66,4.66,0,0,0-4.72,1A11.9,11.9,0,0,0,378,443a18.44,18.44,0,0,0,.6,6.21,11.32,11.32,0,0,1,.53,3.13v0s0,.18-.55.53c-.77.45-1.08.37-1.25.33h0a6.62,6.62,0,0,1-2-1.22l-.36-.28a18,18,0,0,0-3.52-2.26,7.35,7.35,0,0,0-6.81.31,19.72,19.72,0,0,0-4.89,4.41c-.71.83-1.31,1.56-1.88,2.25-.71.87-1.39,1.69-2.2,2.61a21.64,21.64,0,0,1-2.22,2.21,21.57,21.57,0,0,0,2.15-8.55,10.46,10.46,0,0,0-1.9-6.55,14.77,14.77,0,0,0-3.86-3.57c-.5-.34-.9-.61-1.25-.83l-1-.69a3.46,3.46,0,0,1,.43-.19c.92-.39,2.05-.77,3.41-1.19l.83-.26c1.1-.34,2.29-.71,3.44-1.11,2.7-.94,6.28-2.39,8.41-5.14a8.52,8.52,0,0,0,1.82-5.58,12.91,12.91,0,0,0-2-6.15c-1.85-3.1-5.29-4.12-7.67-4.61-1.31-.27-2.68-.45-3.92-.6l-.57-.07c-1.06-.13-2-.25-3-.4-2.39-.4-3.34-.88-3.65-1.21h0a.66.66,0,0,1-.16-.44,6.1,6.1,0,0,1,.39-2.48c1.3-4.09,5.08-5.66,11.53-6.6,1-.15,2.24-.29,3.48-.44,2-.24,4.16-.5,5.9-.82,2.89-.55,6.38-1.51,8.72-4.09a5.29,5.29,0,0,0,1.32-5.38,5.7,5.7,0,0,0-3.35-3.22,18,18,0,0,0-3-.88l-1.89-.38-1.06-.21c-.85-.16-1.59-.33-2.23-.51,1.94-2,5.08-2.75,8.92-3,1-.06,2-.08,3-.09h.17c.88,0,1.8,0,2.61-.08a9.45,9.45,0,0,0,3-.61,5,5,0,0,0,2.05-1.59,4.52,4.52,0,0,0,.83-3.19l-3.85.43,3.85-.43a8.08,8.08,0,0,0-1.8-4.05c-.44-.57-1.07-1.25-1.53-1.76-.19-.2-.34-.38-.46-.51-1.15-1.3-1.18-1.72-1.14-2a2.83,2.83,0,0,1,.66-.81A13.7,13.7,0,0,1,383.48,369.72Zm11,1.95,0,.1A.84.84,0,0,1,394.45,371.67Zm9,26.77,0-.05S403.42,398.45,403.42,398.44Zm-51.75,63.7h0Zm-4.91-21.73s0,0,0,0Zm17.06-50.09v0Z"/><path class="cls-21" d="M369.86,403.8c.09,0,.06,0,0,0ZM381.26,381l.17-.11a1.59,1.59,0,0,1,.13.13A15.7,15.7,0,0,0,386,384.1l-.11.13,0,0a30.15,30.15,0,0,0-3,4,7.48,7.48,0,0,0-1.38-2.93c-.35-.48-.87-1.08-1.22-1.49-.12-.14-.23-.25-.29-.33a4.23,4.23,0,0,1-.64-.91h0a2.64,2.64,0,0,1,.29-.34A9.45,9.45,0,0,1,381.26,381Zm6.71.54c0-.06,0-.09,0-.09A.44.44,0,0,1,388,381.56Zm-7.78,11.94a4.82,4.82,0,0,0,1.41-1,5.33,5.33,0,0,0,1.69,3.6,13,13,0,0,0,4.53,2.46c.68.24,1.27.43,1.81.61.77.25,1.47.48,2.28.8a7.82,7.82,0,0,1,2.4,1.3.77.77,0,0,1,.3.69h-.23l-.41,0c-2,.08-6.29.26-9.12,4.59a11.21,11.21,0,0,0-1.29,9.74,30.53,30.53,0,0,0,3.27,6.68l.35.6a18.28,18.28,0,0,1,2.5,5.41,4.72,4.72,0,0,1-1,4,2.85,2.85,0,0,1-.82.83,2.48,2.48,0,0,1-.86-.35,13.21,13.21,0,0,1-1.29-.87c-.28-.2-.6-.44-1-.73a8.34,8.34,0,0,0-1.95-1,4.46,4.46,0,0,0-4.6,1.05,10.59,10.59,0,0,0-3.16,6.35,15.81,15.81,0,0,0,.42,5.13,13.75,13.75,0,0,1,.37,2.14l-.07.05-.21.11a1.07,1.07,0,0,1-.2-.11,10.14,10.14,0,0,1-.83-.6l-.24-.2a14.27,14.27,0,0,0-2.89-1.92,6.45,6.45,0,0,0-2.9-.62,6.64,6.64,0,0,0-3.21.95,16.59,16.59,0,0,0-3.94,3.73c-.57.69-1,1.28-1.46,1.83-.07.08-.13.17-.2.26a16.72,16.72,0,0,0,.31-2.67,9.2,9.2,0,0,0-1.51-5.61,12.1,12.1,0,0,0-3.12-3.05l-.57-.39c.46-.18,1-.36,1.59-.57l.62-.2c.82-.28,1.75-.59,2.64-.92,2.05-.77,5-2,6.76-4.43a7.8,7.8,0,0,0,1.55-4.84,11.12,11.12,0,0,0-1.56-5.2c-1.58-2.83-4.58-3.7-6.43-4.08-1-.21-2.1-.34-3-.46l-.43-.05c-.81-.09-1.51-.17-2.18-.28a7.19,7.19,0,0,1-2-.55,4.72,4.72,0,0,1,.3-1.66c.87-2.82,3.26-4,8-4.78l2.52-.36c1.56-.21,3.26-.45,4.6-.72,2.24-.47,5.14-1.32,7.11-3.6a5,5,0,0,0,1.17-4.92,5.3,5.3,0,0,0-3-3.09,14.26,14.26,0,0,0-2.47-.73c-.44-.1-1-.2-1.47-.29l-.71-.14a11.5,11.5,0,0,1,5-1.24c.75,0,1.48-.07,2.21-.09h.14c.65,0,1.38,0,2-.08A7.83,7.83,0,0,0,380.19,393.5Zm14.34,9.16v0Zm-6.73,31.27h0Zm-11.92,11.6Zm-.47.29h0ZM352.26,416s0,0,0-.08S352.27,416,352.26,416Zm14.33-18.8v0Zm12.63-14.59v0h0Z"/><path class="cls-21" d="M391.85,388.13c-5.49-1.23-6.89-4.47-6.89-4.47s-5.47,1.87-5.91,4.4,2.85,3.95,3.06,5.73-9.15-1.18-12.77,4c-3,4.41,9.7,2.78,7,5.63-3.48,3.75-16.32.09-18.84,8s9.43,4.09,11.76,7.89c4.92,8-11.41,6.49-10.83,10.59.37,2.63,5.56,2.7,5.45,7-.12,4.63-3.56,6.46-1.12,7.82,3.65,2,7.27-5.78,10.3-7.42s4.77,4.19,8.74,1.9-2-6.72,2.4-10.79c1.07-1,5.23,5.4,9,.63,5.89-7.47-8-13.7-3.38-20.38,2.92-4.2,8.42.26,8.47-4.94.05-4.67-8.09-4.8-10.44-6.85S395,388.82,391.85,388.13Z"/><path class="cls-21" d="M388.25,394.85c-4-.9-5-3.26-5-3.26s-4,1.36-4.31,3.21,2.08,2.88,2.24,4.18-6.68-.86-9.32,2.95c-2.23,3.22,7.07,2,5.14,4.11-2.55,2.74-11.92.07-13.76,5.83s6.89,3,8.59,5.76c3.59,5.85-8.33,4.74-7.91,7.73.28,1.92,4.06,2,4,5.1-.09,3.37-2.6,4.71-.81,5.71,2.66,1.48,5.3-4.22,7.51-5.42s3.48,3.06,6.38,1.39-1.45-4.91,1.75-7.88c.78-.73,3.82,3.95,6.57.46,4.29-5.45-5.86-10-2.47-14.87,2.13-3.06,6.14.19,6.18-3.61,0-3.41-5.91-3.5-7.62-5S390.5,395.36,388.25,394.85Z"/><path class="cls-21" d="M383.6,402.66c-2.56-.57-3.21-2.08-3.21-2.08s-2.54.87-2.75,2.05,1.33,1.83,1.43,2.66-4.26-.55-5.94,1.88c-1.42,2.05,4.51,1.29,3.28,2.61-1.62,1.75-7.59.05-8.77,3.72s4.39,1.9,5.47,3.67c2.29,3.72-5.3,3-5,4.92.17,1.22,2.58,1.25,2.53,3.25-.05,2.15-1.65,3-.52,3.63,1.7.95,3.38-2.68,4.79-3.45s2.21,2,4.06.89-.92-3.13,1.12-5c.5-.46,2.43,2.51,4.18.29,2.73-3.47-3.73-6.36-1.57-9.47,1.35-1.95,3.91.12,3.93-2.3,0-2.17-3.76-2.23-4.85-3.18S385,403,383.6,402.66Z"/><path class="cls-21" d="M378.13,404.17a3.61,3.61,0,0,1-2.65-1.72s-2.11.72-2.27,1.7,1.09,1.52,1.18,2.2-3.52-.45-4.92,1.55c-1.17,1.7,3.73,1.07,2.71,2.17-1.34,1.44-6.28,0-7.25,3.07s3.63,1.58,4.53,3c1.89,3.09-4.39,2.5-4.17,4.08.14,1,2.14,1,2.1,2.69s-1.37,2.48-.43,3c1.4.78,2.79-2.23,4-2.86s1.83,1.61,3.36.73-.76-2.58.92-4.15c.42-.38,2,2.08,3.46.24,2.27-2.87-3.08-5.27-1.3-7.83,1.13-1.62,3.24.1,3.26-1.9,0-1.8-3.11-1.85-4-2.64S379.32,404.44,378.13,404.17Z"/><path class="cls-23" d="M371.77,325.11s28.51,20.46,11.58,87.88c-6,23.75-33.94,51.29-33.94,51.29"/><path class="cls-24" d="M387.83,384.39s-7.15,4-12.16,4.14S363,385.09,363,385.09"/><path class="cls-24" d="M387.73,389.55s3.88,5.13,7.32,6.22,9.74-1,9.74-1"/><path class="cls-24" d="M385.91,399.47s-16.1,11.42-24,12.07c-5.1.41-16.9-2.3-16.9-2.3"/><path class="cls-24" d="M384.16,411.9s5,15.55,9,19.07c2.61,2.26,8.15,4.36,8.15,4.36"/><path class="cls-24" d="M375,431.07s-15.28,10.46-21.64,11.07c-4.1.38-11.21-1.53-11.21-1.53"/><path class="cls-24" d="M377.58,427.44S374,442,374.74,448.33c.45,4.09,5.3,8.52,5.3,8.52"/></g></g></svg>