<svg xmlns="http://www.w3.org/2000/svg" viewBox="0 0 267.29 276.4"><defs><style>.cls-1,.cls-2,.cls-3,.cls-4{fill:none;stroke-linecap:round;stroke-linejoin:round}.cls-1,.cls-3{stroke:#f74700}.cls-1{stroke-width:31.5px}.cls-2,.cls-4{stroke:#b8cdb4}.cls-2{stroke-width:17.64px}.cls-3{stroke-width:32.76px}.cls-4{stroke-width:12.6px}.cls-5{fill:#f4f0e1}.cls-6{fill:#f74700}.cls-7{fill:#b8cdb4}</style></defs><g id="Layer_2" data-name="Layer 2"><g id="Layer_1-2" data-name="Layer 1"><g id="Layer_2-2" data-name="Layer 2"><g id="Web2"><path d="M34.21,139c4.39-18.81-7.59-35.3,6.29-49,13.29-13,29.15-2.23,47.17-7,21.57-5.66,31.57-28.44,52.71-21.77C158.67,67.14,158.1,85.55,171,99.66c14.61,15.81,38.21,16.21,40.27,37.61,1.61,16.67-13.72,22.66-18.42,38.74-5.78,19.72,8.55,36.85-4.62,52.46-14.42,16.91-34.91,3.51-55.88,10.81-17.65,6.18-24.8,24.55-43.16,20.89-19.83-3.95-17.61-26.48-32-40.66s-34.49-12.06-40.36-31S29.54,158.91,34.21,139Z" class="cls-1"/><path d="M51.84,142.75c3.37-14.83-5.88-27.94,4.75-38.56s22.86-1.72,36.88-5.42c16.88-4.41,24.67-22.37,41.27-17,14.47,4.55,14,19.13,24.12,30.24,11.42,12.52,29.89,12.82,31.58,29.71,1.28,13.14-10.71,17.81-14.51,30.56-4.62,15.65,7,29.16-3.5,41.33-11.25,13.31-27.36,2.64-43.75,8.38-13.83,4.77-19.35,19.31-33.83,16.25C79.35,235.11,81,217.35,69.69,206s-27-9.58-31.63-24.56S48.24,158.44,51.84,142.75Z" class="cls-1"/><path d="M66.88,147.23C69.49,136,62.5,126,70.52,117.74s17.37-1.23,28-4.09c12.88-3.22,18.72-17.09,31.35-12.93,10.89,3.57,10.6,14.66,18.35,23.2,8.71,9.62,22.71,9.81,24,22.78,1,10-8.08,13.64-10.83,23.3-3.48,11.73,5.23,22.21-2.66,31.61-8.55,10.1-20.75,2-33.26,6.32-10.52,3.62-14.75,14.77-25.71,12.54s-10.52-16-19.11-24.59S60.2,188.53,56.65,177,64.16,159.26,66.88,147.23Z" class="cls-2"/><path d="M76.52,149.57c2-8.9-3.61-16.9,2.8-23.14s13.51-1,21.94-3.2c10-2.63,14.57-13.37,24.43-10.12,8.5,2.81,8.27,11.52,14.31,18.24,6.8,7.55,17.76,7.77,18.77,17.87.78,7.88-6.3,10.66-8.42,18.25-2.64,9.3,4.11,17.4-2,24.76-6.64,8-16.16,1.57-25.89,4.94-8.18,2.84-11.42,11.5-19.94,9.72s-8.23-12.54-15-19.38-16-5.8-18.77-14.8S74.42,159,76.52,149.57Z" class="cls-2"/><path d="M84.71,152.42c1.53-6.93-2.79-13.1,2.15-18.09s10.61-.8,17.11-2.5c7.83-2,11.45-10.47,19.07-7.83,6.66,2.17,6.45,9,11.19,14.24,5.35,5.91,13.93,6.08,14.74,14,.63,6.17-5,8.35-6.63,14.27-2,7.29,3.25,13.63-1.58,19.41s-12.65,1.21-20.29,3.86c-6.42,2.22-9,9-15.65,7.62s-6.44-9.83-11.68-15.09-12.44-4.62-14.75-11.56S83,159.79,84.71,152.42Z" class="cls-2"/><path d="M109.15,139a21.33,21.33,0,0,1,11.6,40.84,21.26,21.26,0,1,1-11.62-40.64Z" class="cls-3"/><path d="M119.43,158.07a6,6,0,0,0-7-4.25,6.06,6.06,0,1,0,3.34,11.61A6,6,0,0,0,119.43,158.07Z" class="cls-4"/></g></g><g id="Layer_2-3" data-name="Layer 2"><path d="M187.38,83.33,160.92,9.85,67.32,68s49,10.61,45.75,79.35a12.54,12.54,0,0,1,7.84,2.38v0a11.79,11.79,0,0,1,3.34,3.71h0a13.32,13.32,0,0,1,1.65,8s61.06-14.29,82.27,34.6L267.29,126Z" class="cls-5"/><path d="M121.74,100.8s-29.92-37.74-9.39-78.68a39.66,39.66,0,0,1,32.89-22A38.86,38.86,0,0,1,163.4,3.41C187.61,14,189.85,34.54,189.85,34.54s5.43,48.61-55.28,73.2A13.74,13.74,0,0,0,121.74,100.8Z" class="cls-6"/><path d="M174.56,79.53c-6.18,8.17-18,16.56-18,16.56C139.56,67.85,109.74,78,109.74,78a78.6,78.6,0,0,1-4.35-20s4,1.18,15.17-6.94,22-6.55,26.85-3.8,10.08,7.5,11.85,12.46S166.11,74.51,169.32,76A20.87,20.87,0,0,1,174.56,79.53Z" class="cls-7"/><path d="M148.53,125.83S165.18,89,203.64,88.5a33.32,33.32,0,0,1,29.14,16,32.75,32.75,0,0,1,4.5,14.85c1.4,22.16-13,31.74-13,31.74s-34.19,22.78-75.94-13.07A11.51,11.51,0,0,0,148.53,125.83Z" class="cls-6"/><path d="M184.76,157.06c-8.48-1.47-19.31-7.08-19.31-7.08C180,126.43,161,108.07,161,108.07a66.24,66.24,0,0,1,13.23-10.95s.69,3.47,11,8.65,13.36,13.88,13.19,18.58-1.72,10.41-4.74,13.64-8.42,10.83-8.31,13.81A17.37,17.37,0,0,1,184.76,157.06Z" class="cls-7"/></g></g></g></svg>