<svg xmlns="http://www.w3.org/2000/svg" viewBox="0 0 248.52 40.63"><defs><style>.cls-1{fill:#f74700}.cls-2{fill:#b53a25}</style></defs><g id="Layer_2" data-name="Layer 2"><g id="Web1"><path d="M238.76,11.35,238.7,9l-7.18-.05c.45,8.08.45,11,.45,24.63a51.41,51.41,0,0,1,6.82,3.23l5.61-6.23a17.24,17.24,0,0,1-5.7-1.89c0-8,0-10.54.09-13.28Z" class="cls-1"/><path d="M138.84,28.66l-6.73,4.89a45.47,45.47,0,0,1,6.59,3.23l5.61-6.23A16.06,16.06,0,0,1,138.84,28.66Z" class="cls-2"/><path d="M171.9,31.49l-7.5-1a29.27,29.27,0,0,1-7.75-2.78c0-5.7,0-8.88.31-13.41h0L162.25,8l-12.78,5.3c.45,5.29.45,9.82.45,18.88a38.61,38.61,0,0,1,9.19,4.62Z" class="cls-1"/><path d="M224.86,21.66h-11c0-2.56.13-4.8.31-7.53h0L218.6,8l-11.89,5.3c.45,5.29.45,9.82.45,18.88a97.12,97.12,0,0,1,11.76,4.62l5.25-6.23c-3.1-.45-8-1.53-10.27-2.87v-4l5.69,2.24a58,58,0,0,1,5.28-4.22" class="cls-1"/><path d="M32.57,9l11.08,1.34,1.53-7.62L31.76,1.34,32.57,9Z" class="cls-2"/><path d="M46.66,39.74c-.45-8.08-.45-13.86-.45-22.92a41.52,41.52,0,0,1-9.64-4.63l-4.24,4.72v1.93A24.72,24.72,0,0,1,39,21.7c0,7.18,0,10.86-.45,18.93Z" class="cls-2"/><path d="M231.94,33.6a51.61,51.61,0,0,1,6.84,3.18l5.61-6.23a18.84,18.84,0,0,1-5.62-1.89Z" class="cls-2"/><path d="M32.57,9l-.81-7.67h0A66.16,66.16,0,0,1,24.9,6.41c.45,8.08.27,21-.18,29.47h8c-.21-4.05-.37-8.71-.42-13.38V14.35Z" class="cls-1"/><path d="M111.31,13.69c.18-5.18.2-9.12.39-12.35l-7.63.9c.45,8.07.36,20,.36,33.64h6.82V23.77Z" class="cls-1"/><path d="M124,22.88c-1.52-.68-3.23-1.48-4.62-2.2l3.68-1.4v-8a27.65,27.65,0,0,1-7-3.28s-3.13,3.45-4.7,5.22v1.19a50.45,50.45,0,0,1,5,1.12V17.9c0,.44-3.08,2.9-5.1,4.69v1.06l.09.08c2.59.94,4.57,1.75,6,2.37,0,2.25,0,8,0,9.92l6.77.81C123.8,33.37,123.8,26.82,124,22.88Z" class="cls-2"/><path d="M87.2,14.13,91.66,8,91.6,8l-11.89,5.3c.45,5.29.45,9.82.45,18.88a97,97,0,0,1,11.75,4.62l5.25-6.23c-3.09-.45-8-1.53-10.27-2.88,0-5.74,0-8.92.31-13.54Z" class="cls-1"/><path d="M87.2,14.13a30.12,30.12,0,0,1,7,3.14L98,11.17C95.26,9.89,93.52,9.34,91.66,8Z" class="cls-2"/><path d="M132.11,33.55c0-8.34,0-14.67-.09-20.14h-2.16c.81-2,1.22-2.47,2-4.44,0-1.84-.13-3.63-.22-5.38l7.62.9c-.08,1.66-.17,3.09-.22,4.48H143l-.63,4.44h-3.45c-.09,3.77-.09,7.94-.09,15.25Z" class="cls-1"/><path d="M157,14.29l.44.06a35.79,35.79,0,0,1,7.31,2c0,4.22,0,7.54-.31,14.09l7.49,1c-.45-8.07-.45-12.74-.45-18.88A38.87,38.87,0,0,1,162.25,8Z" class="cls-2"/><path d="M185.66,13.36c.26-5.76.17-10.43.28-13.36l-7.09,2.24c.13,8.07,0,23.78,0,29.92a38.49,38.49,0,0,1,9.2,4.62L200,31.49h0l-7.52-.83h0a27.8,27.8,0,0,1-6.83-2.24c0-2.19,0-8,0-14Z" class="cls-1"/><path d="M200,31.47c-.45-5.28-.45-9.81-.45-18.87C197,12,193.48,9.82,190.2,8c0,0-3.07,3.63-4.51,5.37V14.4a27.78,27.78,0,0,1,7.12,2.69c0,5.69-.11,9-.34,13.56Z" class="cls-2"/><path d="M214.21,14.17l.29.09a33.65,33.65,0,0,1,4.82,1.89v5.48l5.54,0,.12-.1,0-10.4A46.06,46.06,0,0,1,218.62,8Z" class="cls-2"/><path d="M241.43,8.07l-2.6,3.23-.06.07v4l.32.16a43.31,43.31,0,0,1,4,2l5.38-6.14C246.41,10.31,243.63,9.15,241.43,8.07Z" class="cls-2"/><path d="M7.49,14.6,12,8.5l-.06-.05L0,13.75C.45,19,.45,23.57.45,32.63A97,97,0,0,1,12.2,37.25L17.45,31c-3.09-.45-8-1.53-10.27-2.87,0-5.75,0-8.93.31-13.55Z" class="cls-1"/><path d="M7.49,14.6a30.12,30.12,0,0,1,7,3.14l3.77-6.1C15.55,10.36,13.81,9.81,12,8.5Z" class="cls-2"/><path d="M72.28,21.67h-11c0-2.56.13-4.8.31-7.54h0L66,8l-11.88,5.3c.44,5.29.44,9.82.44,18.88a97.12,97.12,0,0,1,11.76,4.62l5.25-6.23c-3.1-.45-8-1.53-10.27-2.87v-4L67,25.89a58,58,0,0,1,5.28-4.22" class="cls-1"/><path d="M61.63,14.18l.29.09a33.65,33.65,0,0,1,4.82,1.89v5.48l5.54,0,.12-.1,0-10.4A46.06,46.06,0,0,1,66,8Z" class="cls-2"/></g></g></svg>