<svg xmlns="http://www.w3.org/2000/svg" viewBox="0 0 48.11 43.93"><defs><style>.cls-1,.cls-2{fill:#f74700}.cls-2{fill-rule:evenodd}</style></defs><g id="Layer_2" data-name="Layer 2"><g id="Mob1"><path d="M47,17.94A8,8,0,0,0,44.1,15a8,8,0,0,1-2.94-2.94,8.1,8.1,0,0,1-1.08-4,8,8,0,0,0-4-7,8,8,0,0,0-8,0,8.05,8.05,0,0,1-4,1.07,8.05,8.05,0,0,1-4-1.07A8,8,0,0,0,8,8a8,8,0,0,1-1.08,4A8,8,0,0,1,4,15,8,8,0,0,0,4,28.93,8.12,8.12,0,0,1,7,31.87a8.12,8.12,0,0,1,1.07,4,8,8,0,0,0,12,7,8,8,0,0,1,8,0,8,8,0,0,0,12-7,8.05,8.05,0,0,1,1.07-4,8,8,0,0,1,2.93-2.94,8,8,0,0,0,2.93-11Zm-6,7a5.94,5.94,0,0,1-2.17,2.17,5.84,5.84,0,0,0-2.16,2.17,6,6,0,0,0-.8,3A5.9,5.9,0,0,1,27,37.38a5.94,5.94,0,0,0-5.92,0,5.88,5.88,0,0,1-5.92,0A5.84,5.84,0,0,1,13,35.21a5.92,5.92,0,0,1-.8-3,6,6,0,0,0-.79-3,6.07,6.07,0,0,0-2.16-2.17,6,6,0,0,1-3-5.13,5.95,5.95,0,0,1,3-5.14,5.93,5.93,0,0,0,3-5.14,6,6,0,0,1,.8-3,5.84,5.84,0,0,1,2.16-2.17,5.94,5.94,0,0,1,5.92,0,5.88,5.88,0,0,0,5.92,0,5.91,5.91,0,0,1,8.87,5.13,6,6,0,0,0,.8,3,5.84,5.84,0,0,0,2.16,2.17A5.94,5.94,0,0,1,41,24.93Z" class="cls-1"/><path d="M24.05,12.84A9.35,9.35,0,0,0,21.1,31.07c.47.09.64-.2.64-.45s0-.81,0-1.59c-2.6.56-3.15-1.26-3.15-1.26a2.42,2.42,0,0,0-1-1.36c-.85-.58.06-.57.06-.57a1.94,1.94,0,0,1,1.43,1,2,2,0,0,0,2.72.78,2,2,0,0,1,.6-1.25c-2.08-.24-4.26-1-4.26-4.62a3.6,3.6,0,0,1,1-2.51,3.35,3.35,0,0,1,.09-2.48s.79-.25,2.57,1a9,9,0,0,1,4.69,0c1.78-1.21,2.57-1,2.57-1a3.4,3.4,0,0,1,.09,2.48,3.6,3.6,0,0,1,1,2.51c0,3.59-2.19,4.38-4.27,4.61a2.22,2.22,0,0,1,.63,1.73c0,1.25,0,2.26,0,2.57s.17.54.65.45a9.36,9.36,0,0,0-3-18.23Z" class="cls-2"/></g></g></svg>