<svg xmlns="http://www.w3.org/2000/svg" xmlns:xlink="http://www.w3.org/1999/xlink" viewBox="0 0 335.43 65.57"><defs><style>.cls-1{fill:none}.cls-2{fill:#b53a25}.cls-3{fill:#f74700}.cls-4{fill:#677662}.cls-5{clip-path:url(#clip-path)}.cls-6{fill:#91a88c}.cls-7{fill:#f4f0e1}.cls-8{clip-path:url(#clip-path-2)}</style><clipPath id="clip-path" transform="translate(-3.49)"><rect width="60.51" height="45.88" x="281.91" y="9.48" class="cls-1"/></clipPath><clipPath id="clip-path-2" transform="translate(-3.49)"><rect width="60.51" height="45.88" y="9.48" class="cls-1"/></clipPath></defs><g id="Layer_2" data-name="Layer 2"><g id="Web1"><path d="M148.56,35.19l1.81-1,3.21,2.09,2.25-3.43a.37.37,0,0,0,0-.11l-6.47-4.2a60.58,60.58,0,0,1-6.77,3.37Z" class="cls-2" transform="translate(-3.49)"/><path d="M248.67,8.41l0-1.76-5.32,0c.33,6,.33,8.15.33,18.26a37.21,37.21,0,0,1,5.06,2.39l4.15-4.62a12.49,12.49,0,0,1-4.22-1.4c0-5.95,0-7.81.07-9.84Z" class="cls-3" transform="translate(-3.49)"/><path d="M174.62,21.24l-5,3.63a33.88,33.88,0,0,1,4.89,2.39l4.15-4.62A11.57,11.57,0,0,1,174.62,21.24Z" class="cls-2" transform="translate(-3.49)"/><path d="M136.35,10.47,139.65,6l-.05,0-8.81,3.92c.34,3.92.34,7.28.34,14a72.13,72.13,0,0,1,8.71,3.42l3.89-4.62c-2.3-.33-5.92-1.13-7.61-2.13,0-4.25,0-6.61.23-10Z" class="cls-3" transform="translate(-3.49)"/><path d="M119,22.68l-.62-.21a18.91,18.91,0,0,1-5.12-2c0-4.25.07-6.62.3-10h0L116.83,6l-.1-.07-8.81,3.92c.33,3.92.33,7.28.33,14,1.86.46,4.49,2.06,6.92,3.42l3.72-4.42Z" class="cls-3" transform="translate(-3.49)"/><path d="M199.12,23.34l-5.55-.76a21.86,21.86,0,0,1-5.75-2.06c0-4.23,0-6.59.23-9.95h0L192,5.92,182.5,9.84c.33,3.92.33,7.28.33,14a28,28,0,0,1,6.81,3.42Z" class="cls-3" transform="translate(-3.49)"/><path d="M238.37,16.05h-8.13c0-1.89.1-3.55.23-5.58h0l3.24-4.56-8.82,3.92c.34,3.92.34,7.28.34,14A71.49,71.49,0,0,1,234,27.26l3.89-4.62c-2.29-.33-5.92-1.13-7.61-2.13v-3l4.22,1.66a42.42,42.42,0,0,1,3.91-3.12" class="cls-3" transform="translate(-3.49)"/><path d="M92.32,6.65l8.22,1L101.67,2l-10-1,.6,5.68Z" class="cls-2" transform="translate(-3.49)"/><path d="M102.76,29.46c-.33-6-.33-10.28-.33-17A31.09,31.09,0,0,1,95.28,9l-3.14,3.5V14a18.83,18.83,0,0,1,5,2.13c0,5.32,0,8-.33,14Z" class="cls-2" transform="translate(-3.49)"/><path d="M243.62,24.9a38,38,0,0,1,5.07,2.36l4.16-4.62a13.59,13.59,0,0,1-4.17-1.4Z" class="cls-2" transform="translate(-3.49)"/><path d="M92.32,6.68,91.72,1h0a52,52,0,0,1-5,3.76c.33,6,.2,15.56-.13,21.84h5.95c-.16-3-.28-6.46-.32-9.92v-6Z" class="cls-3" transform="translate(-3.49)"/><path d="M154.22,10.15c.13-3.84.14-6.76.28-9.15l-5.65.66c.33,6,.26,14.83.26,24.94h5.06v-9Z" class="cls-3" transform="translate(-3.49)"/><path d="M163.64,17c-1.13-.49-2.39-1.09-3.42-1.62l2.72-1V8.34a21,21,0,0,1-5.22-2.42s-2.31,2.55-3.48,3.86v.89a33.73,33.73,0,0,1,3.73.83v1.76c0,.34-2.28,2.15-3.78,3.48v.79l.08.06c1.92.7,3.38,1.29,4.41,1.76,0,1.66,0,5.95,0,7.35l5,.59C163.47,24.73,163.47,19.88,163.64,17Z" class="cls-2" transform="translate(-3.49)"/><path d="M136.35,10.47a22.62,22.62,0,0,1,5.22,2.33l2.79-4.52A28.67,28.67,0,0,1,139.65,6Z" class="cls-2" transform="translate(-3.49)"/><path d="M123.58,21.24c-.06-5.94,0-7.34,0-11.9A28.45,28.45,0,0,1,116.83,6l-3.28,4.49h0a20.67,20.67,0,0,1,5,1.65c0,3-.08,5.72-.2,10.33l.62.21-.08.18a17.08,17.08,0,0,0,3.91,4.4L127,22.64A10,10,0,0,1,123.58,21.24Z" class="cls-2" transform="translate(-3.49)"/><path d="M169.63,24.87c0-6.19,0-10.87-.07-14.93H168c.59-1.46.89-1.83,1.49-3.29,0-1.37-.1-2.69-.16-4l5.65.67c-.07,1.23-.14,2.29-.17,3.32h2.93l-.47,3.29h-2.56c-.06,2.79-.06,5.88-.06,11.3Z" class="cls-3" transform="translate(-3.49)"/><path d="M188.06,10.59l.32,0a26.85,26.85,0,0,1,5.42,1.5c0,3.13,0,5.59-.23,10.44l5.55.77c-.33-6-.33-9.44-.33-14A28.1,28.1,0,0,1,192,5.92Z" class="cls-2" transform="translate(-3.49)"/><path d="M209.32,9.9c.2-4.27.13-7.73.2-9.9l-5.25,1.66c.1,6,0,17.62,0,22.18a28.47,28.47,0,0,1,6.82,3.42l8.81-3.92h0l-5.57-.61h0a20.53,20.53,0,0,1-5.07-1.66c0-1.63,0-5.92,0-10.38Z" class="cls-3" transform="translate(-3.49)"/><path d="M219.93,23.33c-.33-3.92-.33-7.28-.33-14-1.86-.46-4.49-2.06-6.91-3.42,0,0-2.28,2.69-3.35,4v.78a20.56,20.56,0,0,1,5.28,2c0,4.21-.08,6.65-.26,10Z" class="cls-2" transform="translate(-3.49)"/><path d="M230.48,10.5l.21.07a25.23,25.23,0,0,1,3.58,1.4V16l4.1,0,.09-.07,0-7.71a34.46,34.46,0,0,1-4.73-2.38Z" class="cls-2" transform="translate(-3.49)"/><path d="M250.66,6l-1.93,2.4,0,0v3l.24.12a30.74,30.74,0,0,1,3,1.46l4-4.55C254.35,7.65,252.28,6.78,250.66,6Z" class="cls-2" transform="translate(-3.49)"/><path d="M181.1,54.57,180,49.45l-5.77,1A52.9,52.9,0,0,1,171.88,43c1.64-1,5.18-3.28,6.69-4.52,2.66.65,5.35,1.44,7.51,1.44l-1.37,5.35a45.75,45.75,0,0,1-7.09-2.46l1.87,5.51,5-1.54a60.15,60.15,0,0,1,2.07,8.27,47.14,47.14,0,0,0-5.22,4.43,40.89,40.89,0,0,0-9-1,17.93,17.93,0,0,1,2.36-5.61Z" class="cls-2" transform="translate(-3.49)"/><path d="M196.74,39.15h2.89l-.46,3.25h-2.52c-.07,2.76-.07,5.81-.07,11.15a11.49,11.49,0,0,0,4,1.38l-4.1,4.56a32.83,32.83,0,0,0-4.82-2.36c0-6.1,0-10.73-.07-14.73H190c.59-1.44.89-1.8,1.48-3.25,0-1.34-.1-2.66-.17-3.94l5.58.66C196.84,37.09,196.78,38.14,196.74,39.15Z" class="cls-2" transform="translate(-3.49)"/><path d="M191.66,57.13c0-6.1,0-10.73-.07-14.73H190c.59-1.44.89-1.8,1.48-3.25,0-1.34-.1-2.66-.17-3.94l5.58.66c-.07,1.21-.13,2.26-.16,3.28h2.88l-.46,3.25h-2.52c-.07,2.76-.07,5.81-.07,11.15" class="cls-3" transform="translate(-3.49)"/><path d="M175,50.31l5.15-2.16-.62.19-1.87-5.51.76-4.18c-1.6,1.28-4.93,3.4-6.5,4.37a52.9,52.9,0,0,0,2.33,7.42Z" class="cls-3" transform="translate(-3.49)"/><path d="M181.1,54.57l-6.4-1.7a17.93,17.93,0,0,0-2.36,5.61,41.49,41.49,0,0,1,9,1,50.93,50.93,0,0,1,5.13-4.37Z" class="cls-3" transform="translate(-3.49)"/><path d="M168.2,40.75l-.07,7.74a42.61,42.61,0,0,0-3.95,3.16L160,50v3c1.7,1,5.32,1.8,7.62,2.13l-3.89,4.62A71.57,71.57,0,0,0,155,56.31c0-6.72,0-10.08-.33-14l8.81-3.92A30.1,30.1,0,0,0,168.2,40.75ZM164,48.53V44.47a26.63,26.63,0,0,0-3.82-1.53c-.14,2-.2,3.69-.24,5.59Z" class="cls-3" transform="translate(-3.49)"/><path d="M160.4,42.94V43A25.71,25.71,0,0,1,164,44.47v4.06h4.07l0,0,.07-7.74a31.9,31.9,0,0,1-4.56-2.23Z" class="cls-2" transform="translate(-3.49)"/><path d="M147.87,60.06l0,0c-.07-7.63,0-10.3.19-18.46h1.78l1.41-3.75h-3.09l.39-3.18c2-.64,3.58-1.7,5.09-1.92-.06,0-4.06-2.46-4.91-3.55-.85.72-3.79,1.65-5.76,2.63.1,1.91.2,3.93.27,6h0l-1.41,3.75h1.58c0,.65,0,1.28.05,1.89h-.66c.07,4.62.07,13.77.07,20.83,2,1,1.76.56,2.63,1.28l4.73-4.38c-1.17-.11-1.27-.32-2.37-1Z" class="cls-2" transform="translate(-3.49)"/><path d="M148.22,37.83l.34-2.68.74-6.57a47.45,47.45,0,0,1-4.57,2.36v0l-2.19,1c.07,1.48.14,3,.17,4.55,0,0,0,.58,0,1.38h-2.52l-1.29,3.75h3.87c0,1.07.05,1.89.05,1.89.06,4.63.06,13.78.06,20.85l5-4.14v-.09l0,0c-.06-7.65,0-10.32.2-18.48h3.19l1.46-3.75Z" class="cls-3" transform="translate(-3.49)"/><path d="M110.06,50.57,115,44l.83-3.52a22.32,22.32,0,0,0-4,2l-1.71-2.88c1.73-.49,2.91-1,4.61-1.6l4.6,2.67-1.86,5.19-3.76,4a37,37,0,0,0,5.21-.23L118,52.47h-6.9Z" class="cls-4" transform="translate(-3.49)"/><path d="M131.74,40.31c0,2.58,0,6.94.21,10.32l-5.36,2.22a15.69,15.69,0,0,0-3.86-1.94c0-3.8,0-8.1-.2-10.32l5.36-2.22A15.62,15.62,0,0,0,131.74,40.31Zm-2.93,9.89c.13-2.75.11-6.54.11-8.31a15.71,15.71,0,0,0-3.25-.89c-.13,2-.12,5.64-.12,8a12.23,12.23,0,0,0,3.26,1.17Z" class="cls-4" transform="translate(-3.49)"/><path d="M208.37,50.57l5-6.61.83-3.52a22.32,22.32,0,0,0-4,2l-1.71-2.88c1.73-.49,2.91-1,4.61-1.6l4.6,2.67-1.86,5.19-3.76,4a37,37,0,0,0,5.21-.23l-.94,2.82h-6.9Z" class="cls-4" transform="translate(-3.49)"/><path d="M221.81,52.87c0-1.47-.13-8.22-.13-10.76L223.35,41h-2.52l.49-2.65h3.39L224.5,41c0,4.12.06,9.69.21,11.49Z" class="cls-4" transform="translate(-3.49)"/><g class="cls-5"><path d="M291.43,31.31a.67.67,0,0,1,.66-.67h30.82a.74.74,0,0,1,.46.2.69.69,0,0,1,.18.47.65.65,0,0,1-.64.66H292.09a.7.7,0,0,1-.47-.19A.68.68,0,0,1,291.43,31.31Z" class="cls-6" transform="translate(-3.49)"/><path d="M309.33,31.37a.58.58,0,0,1,.05-.26.6.6,0,0,1,.14-.21.66.66,0,0,1,.22-.15.7.7,0,0,1,.25-.05h1.06a15.45,15.45,0,0,1,6.19,1.57,15.68,15.68,0,0,1,5,3.77,18.79,18.79,0,0,1,3.87,7.32,1.24,1.24,0,0,1,0,.27.81.81,0,0,1-.08.25.65.65,0,0,1-.17.2.57.57,0,0,1-.23.12.59.59,0,0,1-.26,0,.67.67,0,0,1-.25-.08A.55.55,0,0,1,325,44a.55.55,0,0,1-.12-.24A17.29,17.29,0,0,0,321.28,37,14.68,14.68,0,0,0,311.05,32H310a.65.65,0,0,1-.66-.66Z" class="cls-6" transform="translate(-3.49)"/><path d="M287.46,31.42a2.49,2.49,0,0,1,3-2.46,2.53,2.53,0,0,1,2,2,2.56,2.56,0,0,1-.14,1.45,2.46,2.46,0,0,1-.92,1.12,2.5,2.5,0,0,1-1.39.43,2.54,2.54,0,0,1-1.77-.74A2.51,2.51,0,0,1,287.46,31.42Zm3.67,0a1.21,1.21,0,0,0-.72-1.09,1.13,1.13,0,0,0-.68-.06,1.17,1.17,0,0,0-.92.92,1.13,1.13,0,0,0,.06.68,1.14,1.14,0,0,0,.44.53,1.16,1.16,0,0,0,.65.2,1.23,1.23,0,0,0,.83-.35A1.17,1.17,0,0,0,291.13,31.42Z" class="cls-6" transform="translate(-3.49)"/><path d="M314.23,43.55a2.58,2.58,0,0,1,.42-1.4,2.54,2.54,0,0,1,1.13-.92,2.45,2.45,0,0,1,1.44-.14,2.51,2.51,0,0,1,.9,4.54,2.5,2.5,0,0,1-3.15-.31A2.52,2.52,0,0,1,314.23,43.55Zm3.68,0a1.17,1.17,0,0,0-.73-1.09,1.21,1.21,0,0,0-.68-.07,1.3,1.3,0,0,0-.6.32,1.29,1.29,0,0,0-.32.61,1.22,1.22,0,0,0,.07.68,1.18,1.18,0,0,0,1.08.72,1.18,1.18,0,0,0,1.18-1.17Z" class="cls-6" transform="translate(-3.49)"/><path d="M291.43,31.32a.67.67,0,0,1,.66-.67h2.42a7.43,7.43,0,0,1,5.93,3.39c.59.84,1.12,1.75,1.64,2.63a22.87,22.87,0,0,0,2.46,3.68,8.16,8.16,0,0,0,2.52,2,6,6,0,0,0,2.78.63h4.84a.75.75,0,0,1,.26,0,.86.86,0,0,1,.22.15.71.71,0,0,1,.15.22.74.74,0,0,1,.05.25.75.75,0,0,1-.05.26.86.86,0,0,1-.15.22.64.64,0,0,1-.22.14.58.58,0,0,1-.26.05h-4.82a7.25,7.25,0,0,1-3.37-.77,9.06,9.06,0,0,1-2.94-2.27,24.07,24.07,0,0,1-2.62-3.89c-.5-.86-1-1.75-1.57-2.54A6.19,6.19,0,0,0,294.42,32h-2.33a.65.65,0,0,1-.66-.66Z" class="cls-6" transform="translate(-3.49)"/><path d="M314.23,19.13a2.52,2.52,0,0,1,.42-1.39,2.56,2.56,0,0,1,1.13-.93,2.49,2.49,0,0,1,2.72.55,2.43,2.43,0,0,1,.68,1.28,2.49,2.49,0,0,1-1.06,2.57A2.46,2.46,0,0,1,315,20.9,2.52,2.52,0,0,1,314.23,19.13Zm3.68,0a1.16,1.16,0,0,0-.2-.65,1.14,1.14,0,0,0-.53-.44,1.17,1.17,0,0,0-1.53,1.54,1.18,1.18,0,0,0,.43.53,1.16,1.16,0,0,0,.65.2,1.2,1.2,0,0,0,1.18-1.18Z" class="cls-6" transform="translate(-3.49)"/><path d="M291.43,31.36a.67.67,0,0,1,.66-.67h2.33a6.14,6.14,0,0,0,4.94-2.83c.55-.79,1.07-1.68,1.57-2.54a25.16,25.16,0,0,1,2.61-3.89,9.35,9.35,0,0,1,2.95-2.27,7.24,7.24,0,0,1,3.37-.76h4.82a.57.57,0,0,1,.26,0,.64.64,0,0,1,.22.14,1.07,1.07,0,0,1,.15.22.7.7,0,0,1,0,.52.86.86,0,0,1-.15.22.64.64,0,0,1-.22.14.75.75,0,0,1-.26.05h-4.84a6.06,6.06,0,0,0-2.78.63,8,8,0,0,0-2.52,1.95A23.8,23.8,0,0,0,302.08,26c-.51.89-1.05,1.8-1.63,2.64A7.48,7.48,0,0,1,294.52,32h-2.43a.7.7,0,0,1-.47-.19.64.64,0,0,1-.14-.22A.7.7,0,0,1,291.43,31.36Z" class="cls-6" transform="translate(-3.49)"/><path d="M309.33,31.3a.8.8,0,0,1,.05-.26.6.6,0,0,1,.14-.21.86.86,0,0,1,.22-.15.7.7,0,0,1,.25-.05h1.06a14.68,14.68,0,0,0,10.23-4.92,17.17,17.17,0,0,0,3.56-6.77.69.69,0,0,1,.32-.39.72.72,0,0,1,.5-.06.64.64,0,0,1,.39.31.68.68,0,0,1,.07.5,18.83,18.83,0,0,1-3.87,7.33,15.83,15.83,0,0,1-5,3.77A15.33,15.33,0,0,1,311,32H310a.7.7,0,0,1-.47-.19A.68.68,0,0,1,309.33,31.3Z" class="cls-6" transform="translate(-3.49)"/><path d="M324.24,43.51a1.25,1.25,0,0,1-.18.65,1.27,1.27,0,0,1-.47.48,1.3,1.3,0,0,0-.48.48,1.28,1.28,0,0,0-.18.66,1.25,1.25,0,0,0,.18.65,1.3,1.3,0,0,0,.48.48,1.35,1.35,0,0,1,.47.48,1.28,1.28,0,0,1,.18.65,1.29,1.29,0,0,0,.65,1.14,1.35,1.35,0,0,0,.65.18,1.28,1.28,0,0,0,.66-.18,1.26,1.26,0,0,1,1.3,0,1.28,1.28,0,0,0,.66.18,1.25,1.25,0,0,0,.65-.18,1.3,1.3,0,0,0,.48-.48,1.34,1.34,0,0,0,.17-.65,1.39,1.39,0,0,1,.18-.66,1.3,1.3,0,0,1,.48-.48,1.3,1.3,0,0,0,.48-.48,1.34,1.34,0,0,0,.17-.65,1.29,1.29,0,0,0-.65-1.14,1.3,1.3,0,0,1-.48-.48,1.34,1.34,0,0,1-.17-.65,1.28,1.28,0,0,0-.18-.66,1.3,1.3,0,0,0-.48-.48,1.34,1.34,0,0,0-.65-.17,1.31,1.31,0,0,0-.65.17,1.28,1.28,0,0,1-.66.18,1.25,1.25,0,0,1-.65-.18,1.34,1.34,0,0,0-.65-.17,1.38,1.38,0,0,0-.66.17,1.35,1.35,0,0,0-.47.48A1.28,1.28,0,0,0,324.24,43.51Z" class="cls-3" transform="translate(-3.49)"/><path d="M325.33,44.45a.8.8,0,0,1-.1.38.75.75,0,0,1-.28.28.75.75,0,0,0-.28.28.73.73,0,0,0,0,.77.75.75,0,0,0,.28.28.76.76,0,0,1,.38.66.72.72,0,0,0,.1.38.69.69,0,0,0,.28.28.71.71,0,0,0,.76,0,.86.86,0,0,1,.38-.1.8.8,0,0,1,.38.1.73.73,0,0,0,.77,0,.75.75,0,0,0,.28-.28.8.8,0,0,0,.1-.38.76.76,0,0,1,.38-.66.76.76,0,0,0,.38-.66.7.7,0,0,0-.1-.38.69.69,0,0,0-.28-.28.83.83,0,0,1-.28-.28.76.76,0,0,1-.1-.39.86.86,0,0,0-.1-.38.83.83,0,0,0-.28-.28.75.75,0,0,0-.38-.1.76.76,0,0,0-.39.1.7.7,0,0,1-.38.1.75.75,0,0,1-.38-.1.77.77,0,0,0-.76,0,.76.76,0,0,0-.38.66Z" class="cls-7" transform="translate(-3.49)"/><path d="M325.6,45.78a1.26,1.26,0,1,0,1.25-1.26A1.26,1.26,0,0,0,325.6,45.78Z" class="cls-3" transform="translate(-3.49)"/><path d="M326.36,45.78a.5.5,0,1,0,.49-.5A.49.49,0,0,0,326.36,45.78Z" class="cls-7" transform="translate(-3.49)"/><path d="M325.49,26.71a2.64,2.64,0,0,1-.36,1.34,2.82,2.82,0,0,1-1,1,2.69,2.69,0,0,0,0,4.66A2.7,2.7,0,0,1,325.49,36a2.68,2.68,0,0,0,4,2.33,2.72,2.72,0,0,1,1.34-.36,2.74,2.74,0,0,1,1.34.36,2.68,2.68,0,0,0,4-2.33,2.7,2.7,0,0,1,1.35-2.33,2.7,2.7,0,0,0,0-4.67,2.56,2.56,0,0,1-1-1,2.68,2.68,0,0,1-.36-1.35,2.69,2.69,0,0,0-4-2.34,2.63,2.63,0,0,1-2.69,0A2.69,2.69,0,0,0,325.49,26.71Z" class="cls-3" transform="translate(-3.49)"/><path d="M327.53,28.48a1.65,1.65,0,0,1-.83,1.44,1.68,1.68,0,0,0,0,2.9,1.62,1.62,0,0,1,.61.61,1.72,1.72,0,0,1,.22.83,1.67,1.67,0,0,0,2.5,1.45,1.68,1.68,0,0,1,1.66,0,1.67,1.67,0,0,0,2.5-1.44,1.76,1.76,0,0,1,.23-.84,1.7,1.7,0,0,1,.61-.61,1.67,1.67,0,0,0,0-2.89,1.62,1.62,0,0,1-.61-.61,1.66,1.66,0,0,1-.23-.84A1.66,1.66,0,0,0,331.7,27a1.75,1.75,0,0,1-.84.22A1.72,1.72,0,0,1,330,27,1.66,1.66,0,0,0,327.53,28.48Z" class="cls-7" transform="translate(-3.49)"/><path d="M328.28,31.37a2.59,2.59,0,1,0,2.58-2.58A2.59,2.59,0,0,0,328.28,31.37Z" class="cls-3" transform="translate(-3.49)"/><path d="M329.84,31.37a1,1,0,1,0,1-1A1,1,0,0,0,329.84,31.37Z" class="cls-7" transform="translate(-3.49)"/><path d="M304.57,29.39c.05-.2.05-.41.1-.61A6.69,6.69,0,0,1,308.53,24a7.67,7.67,0,0,1,1.56-.5,37.09,37.09,0,0,0,4.12-1,1.77,1.77,0,0,1,.06.43c0,.38-.06.77-.1,1.15a5.34,5.34,0,0,1-1.06,2.7,7,7,0,0,1-5.27,2.77,5,5,0,0,0-2.11.51,1.45,1.45,0,0,0-.59,1.13.19.19,0,0,1,0,.09.14.14,0,0,1-.09.05.12.12,0,0,1-.1,0,.11.11,0,0,1-.07-.06A2.69,2.69,0,0,1,304.57,29.39Z" class="cls-6" transform="translate(-3.49)"/><path d="M304.57,33.1c.05.2.05.41.1.61a6.69,6.69,0,0,0,3.86,4.82,7.67,7.67,0,0,0,1.56.5,37.09,37.09,0,0,1,4.12,1,1.77,1.77,0,0,0,.06-.43c0-.38-.06-.77-.1-1.15a5.34,5.34,0,0,0-1.06-2.7A7,7,0,0,0,307.84,33a5,5,0,0,1-2.11-.51,1.45,1.45,0,0,1-.59-1.13.19.19,0,0,0,0-.09.14.14,0,0,0-.09-.05.12.12,0,0,0-.1,0,.11.11,0,0,0-.07.06A2.69,2.69,0,0,0,304.57,33.1Z" class="cls-6" transform="translate(-3.49)"/><path d="M324.24,14.75a1.28,1.28,0,0,1-.18.66,1.44,1.44,0,0,1-.47.48,1.3,1.3,0,0,0-.66,1.13,1.33,1.33,0,0,0,.66,1.13,1.35,1.35,0,0,1,.47.48,1.28,1.28,0,0,1,.18.66,1.34,1.34,0,0,0,.17.65,1.3,1.3,0,0,0,.48.48,1.25,1.25,0,0,0,.65.18,1.28,1.28,0,0,0,.66-.18,1.33,1.33,0,0,1,1.3,0,1.28,1.28,0,0,0,.66.18,1.25,1.25,0,0,0,.65-.18,1.29,1.29,0,0,0,.65-1.13,1.39,1.39,0,0,1,.18-.66,1.27,1.27,0,0,1,.48-.47,1.29,1.29,0,0,0,.65-1.14,1.34,1.34,0,0,0-.17-.65,1.3,1.3,0,0,0-.48-.48,1.29,1.29,0,0,1-.65-1.14,1.25,1.25,0,0,0-.18-.65,1.23,1.23,0,0,0-.48-.48,1.25,1.25,0,0,0-.65-.18,1.22,1.22,0,0,0-.65.18,1.38,1.38,0,0,1-.66.17,1.34,1.34,0,0,1-.65-.17,1.25,1.25,0,0,0-.65-.18,1.28,1.28,0,0,0-.66.18,1.3,1.3,0,0,0-.48.48A1.34,1.34,0,0,0,324.24,14.75Z" class="cls-3" transform="translate(-3.49)"/><path d="M325.33,15.7a.86.86,0,0,1-.1.38.93.93,0,0,1-.28.28.69.69,0,0,0-.28.28.77.77,0,0,0,0,.76.63.63,0,0,0,.28.28.93.93,0,0,1,.28.28.87.87,0,0,1,.1.39.75.75,0,0,0,.1.38.77.77,0,0,0,1,.28.75.75,0,0,1,.38-.1.7.7,0,0,1,.38.1.79.79,0,0,0,.77,0,.93.93,0,0,0,.28-.28.86.86,0,0,0,.1-.38.76.76,0,0,1,.1-.39.83.83,0,0,1,.28-.28.69.69,0,0,0,.28-.28.7.7,0,0,0,.1-.38.76.76,0,0,0-.38-.66.76.76,0,0,1-.38-.66.87.87,0,0,0-.1-.39A.93.93,0,0,0,328,15a.79.79,0,0,0-.77,0,.7.7,0,0,1-.38.11.76.76,0,0,1-.38-.11.83.83,0,0,0-.38-.1.86.86,0,0,0-.38.1.83.83,0,0,0-.28.28A.76.76,0,0,0,325.33,15.7Z" class="cls-7" transform="translate(-3.49)"/><path d="M325.6,17a1.26,1.26,0,1,0,1.25-1.26A1.25,1.25,0,0,0,325.6,17Z" class="cls-3" transform="translate(-3.49)"/><path d="M326.36,17a.5.5,0,1,0,1,0,.5.5,0,1,0-1,0Z" class="cls-7" transform="translate(-3.49)"/></g><g class="cls-8"><path d="M50.79,31.78a.67.67,0,0,1-.47.19H19.51a.61.61,0,0,1-.46-.2.66.66,0,0,1-.19-.46.67.67,0,0,1,.65-.67H50.32a.68.68,0,0,1,.67.67A.65.65,0,0,1,50.79,31.78Z" class="cls-6" transform="translate(-3.49)"/><path d="M32.89,31.84a.67.67,0,0,1-.47.19H31.37A14.68,14.68,0,0,0,21.14,37a17.43,17.43,0,0,0-3.57,6.78.66.66,0,0,1-.11.24.79.79,0,0,1-.2.17.73.73,0,0,1-.25.08.57.57,0,0,1-.26,0,.55.55,0,0,1-.24-.12.62.62,0,0,1-.16-.2.61.61,0,0,1-.08-.25.63.63,0,0,1,0-.27A18.53,18.53,0,0,1,20.17,36a15.58,15.58,0,0,1,5-3.77,15.41,15.41,0,0,1,6.19-1.57h1.05a.75.75,0,0,1,.26.05.62.62,0,0,1,.21.15.8.8,0,0,1,.15.21.75.75,0,0,1,.05.26A.67.67,0,0,1,32.89,31.84Z" class="cls-6" transform="translate(-3.49)"/><path d="M54.22,33.19a2.52,2.52,0,0,1-1.76.74,2.53,2.53,0,0,1-2.31-1.55A2.48,2.48,0,0,1,50,30.93a2.43,2.43,0,0,1,.68-1.28A2.55,2.55,0,0,1,52,29a2.45,2.45,0,0,1,1.44.14,2.5,2.5,0,0,1,.81,4.09Zm-2.59-.94a1.21,1.21,0,0,0,.83.35,1.17,1.17,0,0,0,1.08-.73,1.17,1.17,0,0,0-.25-1.28,1.14,1.14,0,0,0-.6-.32,1.13,1.13,0,0,0-.68.06,1.14,1.14,0,0,0-.53.44,1.16,1.16,0,0,0-.2.65A1.18,1.18,0,0,0,51.63,32.25Z" class="cls-6" transform="translate(-3.49)"/><path d="M27.45,45.32a2.51,2.51,0,0,1-1.77.73,2.47,2.47,0,0,1-1.39-.42,2.52,2.52,0,0,1-.92-1.12,2.49,2.49,0,0,1-.14-1.45,2.57,2.57,0,0,1,.68-1.29,2.54,2.54,0,0,1,1.28-.68,2.51,2.51,0,0,1,2.26,4.23Zm-2.6-.94a1.17,1.17,0,0,0,.83.34,1.16,1.16,0,0,0,.65-.2,1.12,1.12,0,0,0,.44-.52,1.22,1.22,0,0,0,.06-.68,1.13,1.13,0,0,0-.32-.61,1.17,1.17,0,0,0-1.28-.25,1.15,1.15,0,0,0-.52.43,1.19,1.19,0,0,0-.2.66A1.17,1.17,0,0,0,24.85,44.38Z" class="cls-6" transform="translate(-3.49)"/><path d="M50.79,31.79a.67.67,0,0,1-.47.19H48a6.17,6.17,0,0,0-4.94,2.83c-.56.79-1.08,1.68-1.58,2.54a24.68,24.68,0,0,1-2.61,3.89,9.28,9.28,0,0,1-2.94,2.27,7.29,7.29,0,0,1-3.38.77H27.73a.6.6,0,0,1-.26-.05.74.74,0,0,1-.22-.14.86.86,0,0,1-.15-.22.75.75,0,0,1-.05-.26.74.74,0,0,1,.05-.25.71.71,0,0,1,.15-.22,1.07,1.07,0,0,1,.22-.15.78.78,0,0,1,.26,0h4.85a6,6,0,0,0,2.77-.63,8.08,8.08,0,0,0,2.53-2,23.53,23.53,0,0,0,2.45-3.68c.52-.88,1.05-1.79,1.64-2.63a7.45,7.45,0,0,1,5.93-3.39h2.42a.68.68,0,0,1,.67.67A.67.67,0,0,1,50.79,31.79Z" class="cls-6" transform="translate(-3.49)"/><path d="M27.45,20.9a2.52,2.52,0,0,1-1.77.74,2.51,2.51,0,0,1-1.77-4.28,2.5,2.5,0,0,1,2.73-.55,2.49,2.49,0,0,1,1.12.93,2.45,2.45,0,0,1,.42,1.39A2.51,2.51,0,0,1,27.45,20.9ZM24.85,20a1.18,1.18,0,0,0,.83.35,1.16,1.16,0,0,0,.65-.2,1.14,1.14,0,0,0,.44-.53,1.21,1.21,0,0,0,.06-.68,1.07,1.07,0,0,0-.32-.6,1.14,1.14,0,0,0-.6-.32,1.22,1.22,0,0,0-.68.06A1.18,1.18,0,0,0,24.85,20Z" class="cls-6" transform="translate(-3.49)"/><path d="M50.93,31.61a.6.6,0,0,1-.36.36.7.7,0,0,1-.25.05H47.9A7.46,7.46,0,0,1,42,28.63c-.59-.84-1.12-1.75-1.64-2.64a23.8,23.8,0,0,0-2.46-3.68,8,8,0,0,0-2.52-1.95,6,6,0,0,0-2.78-.63H27.73a.8.8,0,0,1-.26-.05.74.74,0,0,1-.22-.14.86.86,0,0,1-.15-.22.7.7,0,0,1,0-.52,1.07,1.07,0,0,1,.15-.22.74.74,0,0,1,.22-.14.59.59,0,0,1,.26,0h4.82a7.28,7.28,0,0,1,3.38.76,9.43,9.43,0,0,1,2.94,2.27,24.46,24.46,0,0,1,2.61,3.89c.5.86,1,1.75,1.58,2.54A6.11,6.11,0,0,0,48,30.69h2.32a.68.68,0,0,1,.67.67A.54.54,0,0,1,50.93,31.61Z" class="cls-6" transform="translate(-3.49)"/><path d="M32.89,31.77a.67.67,0,0,1-.47.19H31.37a15.3,15.3,0,0,1-6.19-1.56,15.72,15.72,0,0,1-5-3.77,18.72,18.72,0,0,1-3.88-7.33.68.68,0,0,1,.07-.5.7.7,0,0,1,.39-.31.72.72,0,0,1,.5.06.66.66,0,0,1,.32.39,17.32,17.32,0,0,0,3.57,6.77,14.18,14.18,0,0,0,4.56,3.46,14.43,14.43,0,0,0,5.67,1.46h1.05a.75.75,0,0,1,.26.05.66.66,0,0,1,.41.62A.65.65,0,0,1,32.89,31.77Z" class="cls-6" transform="translate(-3.49)"/><path d="M18,42.85a1.38,1.38,0,0,0-.48-.48,1.34,1.34,0,0,0-.65-.17,1.38,1.38,0,0,0-.66.17,1.22,1.22,0,0,1-.65.18,1.25,1.25,0,0,1-.65-.18,1.3,1.3,0,0,0-2,1.14,1.25,1.25,0,0,1-.18.65,1.27,1.27,0,0,1-.47.48,1.3,1.3,0,0,0-.48.48,1.28,1.28,0,0,0-.18.66,1.25,1.25,0,0,0,.18.65,1.23,1.23,0,0,0,.48.48,1.35,1.35,0,0,1,.47.48,1.28,1.28,0,0,1,.18.66,1.25,1.25,0,0,0,.18.65,1.21,1.21,0,0,0,.47.48,1.28,1.28,0,0,0,.66.18,1.25,1.25,0,0,0,.65-.18,1.35,1.35,0,0,1,.65-.18,1.39,1.39,0,0,1,.66.18,1.25,1.25,0,0,0,.65.18,1.32,1.32,0,0,0,.65-.18A1.3,1.3,0,0,0,18,48.7a1.28,1.28,0,0,0,.18-.66,1.29,1.29,0,0,1,.65-1.13,1.38,1.38,0,0,0,.48-.48,1.34,1.34,0,0,0,.17-.65,1.29,1.29,0,0,0-.65-1.14,1.23,1.23,0,0,1-.48-.48,1.25,1.25,0,0,1-.18-.65A1.38,1.38,0,0,0,18,42.85Z" class="cls-3" transform="translate(-3.49)"/><path d="M17,44.07a.73.73,0,0,0-.27-.28.76.76,0,0,0-.39-.1.75.75,0,0,0-.38.1.7.7,0,0,1-.38.1.75.75,0,0,1-.38-.1.75.75,0,0,0-.38-.1.7.7,0,0,0-.38.1.69.69,0,0,0-.28.28.75.75,0,0,0-.1.38.77.77,0,0,1-.11.39.75.75,0,0,1-.28.28.66.66,0,0,0-.27.28.7.7,0,0,0-.11.38.76.76,0,0,0,.11.38.73.73,0,0,0,.27.28.69.69,0,0,1,.28.28.76.76,0,0,1,.11.38.7.7,0,0,0,.1.38.69.69,0,0,0,.28.28.7.7,0,0,0,.38.11.76.76,0,0,0,.38-.11.86.86,0,0,1,.38-.1.8.8,0,0,1,.38.1.73.73,0,0,0,.77,0,.66.66,0,0,0,.27-.28.73.73,0,0,0,.11-.38.72.72,0,0,1,.1-.38.75.75,0,0,1,.28-.28.93.93,0,0,0,.28-.28.79.79,0,0,0,0-.77.93.93,0,0,0-.28-.28.69.69,0,0,1-.28-.28.7.7,0,0,1-.1-.38A.76.76,0,0,0,17,44.07Z" class="cls-7" transform="translate(-3.49)"/><path d="M15.56,44.52a1.26,1.26,0,1,0,1.26,1.26A1.25,1.25,0,0,0,15.56,44.52Z" class="cls-3" transform="translate(-3.49)"/><path d="M15.56,45.28a.5.5,0,1,0,.5.5A.49.49,0,0,0,15.56,45.28Z" class="cls-7" transform="translate(-3.49)"/><path d="M12.89,24.37a2.65,2.65,0,0,1-1.34.37,2.69,2.69,0,0,1-1.35-.37,2.69,2.69,0,0,0-4,2.34,2.78,2.78,0,0,1-.36,1.35,2.66,2.66,0,0,1-1,1,2.7,2.7,0,0,0,0,4.67,2.82,2.82,0,0,1,1,1A2.64,2.64,0,0,1,6.18,36a2.68,2.68,0,0,0,4,2.33,2.69,2.69,0,0,1,2.69,0,2.69,2.69,0,0,0,4-2.33,2.71,2.71,0,0,1,1.34-2.34,2.69,2.69,0,0,0,0-4.66,2.7,2.7,0,0,1-1.35-2.33A2.69,2.69,0,0,0,12.89,24.37Z" class="cls-3" transform="translate(-3.49)"/><path d="M12.38,27a1.68,1.68,0,0,1-1.66,0,1.66,1.66,0,0,0-2.5,1.44,1.75,1.75,0,0,1-.22.84,1.78,1.78,0,0,1-.61.61,1.67,1.67,0,0,0,0,2.89,1.78,1.78,0,0,1,.61.61,1.75,1.75,0,0,1,.22.84,1.67,1.67,0,0,0,2.5,1.44,1.61,1.61,0,0,1,.83-.22,1.67,1.67,0,0,1,.84.22,1.66,1.66,0,0,0,2.49-1.45,1.62,1.62,0,0,1,.23-.83,1.53,1.53,0,0,1,.6-.61,1.67,1.67,0,0,0,0-2.9,1.53,1.53,0,0,1-.6-.61,1.62,1.62,0,0,1-.23-.83A1.66,1.66,0,0,0,12.38,27Z" class="cls-7" transform="translate(-3.49)"/><path d="M11.55,28.79a2.59,2.59,0,1,0,2.58,2.58A2.58,2.58,0,0,0,11.55,28.79Z" class="cls-3" transform="translate(-3.49)"/><path d="M11.55,30.35a1,1,0,1,0,1,1A1,1,0,0,0,11.55,30.35Z" class="cls-7" transform="translate(-3.49)"/><path d="M37.58,31.18a.16.16,0,0,1-.08.06.11.11,0,0,1-.1,0,.1.1,0,0,1-.08-.05.1.1,0,0,1,0-.09,1.46,1.46,0,0,0-.6-1.13,5,5,0,0,0-2.1-.51A7,7,0,0,1,29.3,26.7,5.24,5.24,0,0,1,28.25,24c-.05-.38-.09-.77-.11-1.15a2.45,2.45,0,0,1,.06-.43,36.7,36.7,0,0,0,4.13,1,7.67,7.67,0,0,1,1.56.5,6.74,6.74,0,0,1,3.86,4.82c0,.2,0,.41.09.61A2.77,2.77,0,0,1,37.58,31.18Z" class="cls-6" transform="translate(-3.49)"/><path d="M37.58,31.31a.16.16,0,0,0-.08-.06.11.11,0,0,0-.1,0,.1.1,0,0,0-.08.05.1.1,0,0,0,0,.09,1.46,1.46,0,0,1-.6,1.13,5,5,0,0,1-2.1.51,7,7,0,0,0-5.28,2.77,5.24,5.24,0,0,0-1.05,2.7c-.05.38-.09.77-.11,1.15a2.45,2.45,0,0,0,.06.43,36.7,36.7,0,0,1,4.13-1,7.67,7.67,0,0,0,1.56-.5,6.74,6.74,0,0,0,3.86-4.82c0-.2,0-.41.09-.61A2.77,2.77,0,0,0,37.58,31.31Z" class="cls-6" transform="translate(-3.49)"/><path d="M18,14.1a1.3,1.3,0,0,0-.48-.48,1.25,1.25,0,0,0-.65-.18,1.28,1.28,0,0,0-.66.18,1.31,1.31,0,0,1-.65.17,1.34,1.34,0,0,1-.65-.17,1.28,1.28,0,0,0-1.31,0,1.3,1.3,0,0,0-.48.48,1.34,1.34,0,0,0-.17.65,1.28,1.28,0,0,1-.18.66,1.35,1.35,0,0,1-.47.48,1.23,1.23,0,0,0-.48.48,1.25,1.25,0,0,0-.18.65,1.28,1.28,0,0,0,.18.66,1.3,1.3,0,0,0,.48.48,1.32,1.32,0,0,1,.47.47,1.28,1.28,0,0,1,.18.66,1.22,1.22,0,0,0,.18.65,1.21,1.21,0,0,0,.47.48,1.28,1.28,0,0,0,.66.18,1.25,1.25,0,0,0,.65-.18,1.34,1.34,0,0,1,.65-.17,1.38,1.38,0,0,1,.66.17,1.25,1.25,0,0,0,.65.18A1.33,1.33,0,0,0,18,19.94a1.25,1.25,0,0,0,.18-.65,1.29,1.29,0,0,1,.65-1.14A1.29,1.29,0,0,0,19.48,17a1.38,1.38,0,0,0-.17-.66,1.35,1.35,0,0,0-.48-.47,1.38,1.38,0,0,1-.48-.48,1.28,1.28,0,0,1-.18-.66A1.34,1.34,0,0,0,18,14.1Z" class="cls-3" transform="translate(-3.49)"/><path d="M17,15.31A.75.75,0,0,0,16.7,15a.8.8,0,0,0-.38-.1.86.86,0,0,0-.38.1.7.7,0,0,1-.38.11.76.76,0,0,1-.38-.11.86.86,0,0,0-.38-.1.8.8,0,0,0-.38.1.76.76,0,0,0-.38.67.76.76,0,0,1-.11.38.69.69,0,0,1-.28.28.73.73,0,0,0-.27.28.76.76,0,0,0-.11.38.7.7,0,0,0,.11.38.66.66,0,0,0,.27.28.75.75,0,0,1,.28.28.77.77,0,0,1,.11.39.76.76,0,0,0,.38.66.8.8,0,0,0,.38.1.86.86,0,0,0,.38-.1.75.75,0,0,1,.38-.1.7.7,0,0,1,.38.1.79.79,0,0,0,.77,0,.8.8,0,0,0,.27-.28.76.76,0,0,0,.11-.38.76.76,0,0,1,.1-.39.83.83,0,0,1,.28-.28.75.75,0,0,0,.28-.28.76.76,0,0,0-.28-1,.83.83,0,0,1-.28-.28.75.75,0,0,1-.1-.38A.77.77,0,0,0,17,15.31Z" class="cls-7" transform="translate(-3.49)"/><path d="M15.56,15.76A1.26,1.26,0,1,0,16.82,17,1.26,1.26,0,0,0,15.56,15.76Z" class="cls-3" transform="translate(-3.49)"/><path d="M15.56,16.52a.5.5,0,0,0-.49.5.5.5,0,1,0,1,0A.5.5,0,0,0,15.56,16.52Z" class="cls-7" transform="translate(-3.49)"/></g></g></g></svg>