<svg xmlns="http://www.w3.org/2000/svg" viewBox="0 0 35 40.83"><defs><style>.cls-1{fill:#f74700;}</style></defs><g id="Layer_2" data-name="Layer 2"><g id="Web2"><path class="cls-1" d="M29.16,17.5a5.79,5.79,0,0,0-5,3c-.26,0-.52-.05-.79-.05-6,0-11.64-4.55-13.71-10.18a5.76,5.76,0,0,0,2.05-4.4,5.84,5.84,0,1,0-8.75,5V30a5.82,5.82,0,1,0,8.75,5,5.8,5.8,0,0,0-2.92-5V19.48c3.83,4.06,9.13,6.77,14.58,6.77.29,0,.53,0,.79,0a5.83,5.83,0,1,0,5-8.72ZM5.83,37.91A2.92,2.92,0,1,1,8.75,35,2.91,2.91,0,0,1,5.83,37.91Zm0-29.16A2.92,2.92,0,1,1,8.75,5.83,2.91,2.91,0,0,1,5.83,8.75Zm23.33,17.5a2.92,2.92,0,1,1,2.92-2.92A2.91,2.91,0,0,1,29.16,26.25Z"/></g></g></svg>