<svg xmlns="http://www.w3.org/2000/svg" viewBox="0 0 103.39 103.39"><defs><style>.cls-1{fill:#fff}.cls-2{fill:#ffc77f;fill-rule:evenodd}</style></defs><g id="Layer_2" data-name="Layer 2"><g id="Layer_1-2" data-name="Layer 1"><circle cx="51.7" cy="51.7" r="51.7" class="cls-1"/><path d="M51.69,23.51a28.9,28.9,0,0,0-9.13,56.32c1.45.26,2-.63,2-1.39s0-2.51,0-4.92c-8,1.75-9.74-3.87-9.74-3.87-1.31-3.34-3.21-4.23-3.21-4.23-2.62-1.79.2-1.76.2-1.76a6.1,6.1,0,0,1,4.43,3c2.58,4.42,6.76,3.14,8.41,2.4a6.19,6.19,0,0,1,1.83-3.86C40,64.45,33.26,62,33.26,50.9a11.21,11.21,0,0,1,3-7.76,10.38,10.38,0,0,1,.29-7.64s2.42-.78,7.94,3a27.47,27.47,0,0,1,14.47,0c5.52-3.74,7.94-3,7.94-3a10.38,10.38,0,0,1,.29,7.64,11.16,11.16,0,0,1,3,7.76c0,11.1-6.76,13.54-13.2,14.26,1,.89,2,2.65,2,5.35,0,3.86,0,7,0,7.93,0,.77.52,1.67,2,1.39a28.91,28.91,0,0,0-9.16-56.32Z" class="cls-2"/></g></g></svg>