<svg xmlns="http://www.w3.org/2000/svg" viewBox="0 0 55.86 56.37"><defs><style>.cls-1,.cls-2,.cls-3,.cls-4{fill:none;stroke-linecap:round;stroke-linejoin:round}.cls-1,.cls-3{stroke:#f74700}.cls-1{stroke-width:7.75px}.cls-2,.cls-4{stroke:#b8cdb4}.cls-2{stroke-width:4.34px}.cls-3{stroke-width:8.06px}.cls-4{stroke-width:3.1px}</style></defs><g id="Layer_2" data-name="Layer 2"><g id="Web2"><path d="M14.13,13.45c3.36-3.36,3-8.36,7.68-9.42,4.47-1,6.38,3.32,10.76,4.67C37.81,10.32,42.86,6.86,46.41,11c3.06,3.6.55,7.37,1.42,12,1,5.2,5.88,8.35,3.53,13.09-1.83,3.69-5.81,2.95-8.88,5.7-3.77,3.37-3,8.81-7.78,10.36-5.21,1.66-7.75-3.8-13.08-5-4.49-1-8.37,1.91-11.73-1.24-3.63-3.4-.24-7.82-1.4-12.65s-5.64-7-4.4-11.73S10.57,17,14.13,13.45Z" class="cls-1"/><path d="M17.33,16.52c2.63-2.66,2.4-6.6,6-7.44s5,2.61,8.41,3.66c4.1,1.27,8.06-1.47,10.83,1.81C45,17.38,43,20.36,43.68,24c.76,4.1,4.58,6.56,2.74,10.31-1.44,2.91-4.55,2.33-7,4.5-3,2.67-2.33,7-6.1,8.18-4.08,1.32-6.06-3-10.23-3.93-3.51-.8-6.55,1.52-9.18-1-2.83-2.67-.17-6.16-1.07-10s-4.4-5.51-3.42-9.24S14.54,19.33,17.33,16.52Z" class="cls-1"/><path d="M19.89,19.41c2-2,1.84-5,4.59-5.69s3.79,2,6.39,2.79c3.11,1,6.13-1.14,8.23,1.37,1.81,2.16.31,4.44.82,7.23.57,3.14,3.47,5,2.06,7.88-1.09,2.23-3.46,1.8-5.29,3.46-2.25,2-1.79,5.32-4.66,6.26-3.1,1-4.6-2.27-7.77-3-2.67-.61-5,1.17-7-.72s-.12-4.71-.8-7.62-3.33-4.2-2.58-7.06S17.76,21.57,19.89,19.41Z" class="cls-2"/><path d="M21.6,21.15c1.57-1.6,1.44-4,3.59-4.47s2.95,1.55,5,2.18c2.43.75,4.78-.9,6.42,1.06,1.41,1.69.23,3.48.62,5.67.44,2.46,2.7,3.93,1.6,6.17-.86,1.75-2.7,1.41-4.13,2.72-1.76,1.6-1.4,4.17-3.64,4.91-2.42.8-3.58-1.77-6.05-2.33-2.08-.47-3.88.92-5.43-.56s-.09-3.69-.62-6-2.59-3.29-2-5.53S19.94,22.84,21.6,21.15Z" class="cls-2"/><path d="M22.94,22.81c1.22-1.25,1.12-3.1,2.8-3.5s2.32,1.21,3.9,1.7c1.9.59,3.75-.7,5,.84,1.11,1.32.18,2.72.49,4.43.35,1.93,2.12,3.08,1.26,4.84-.67,1.37-2.12,1.1-3.24,2.12-1.37,1.26-1.09,3.27-2.85,3.85s-2.8-1.39-4.74-1.83c-1.63-.37-3.05.72-4.26-.44s-.07-2.89-.48-4.67-2-2.58-1.58-4.33S21.63,24.13,22.94,22.81Z" class="cls-2"/><path d="M29.79,23.18a5.08,5.08,0,0,1,3.12,6.29,5.09,5.09,0,0,1-6,3.75,5.23,5.23,0,1,1,2.85-10Z" class="cls-3"/><path d="M29.46,28.5a1.47,1.47,0,0,0-.9-1.79,1.49,1.49,0,1,0-.81,2.86A1.47,1.47,0,0,0,29.46,28.5Z" class="cls-4"/></g></g></svg>